<svg width="193" height="52" viewBox="0 0 193 52" fill="none" xmlns="http://www.w3.org/2000/svg">
<path fill-rule="evenodd" clip-rule="evenodd" d="M0 0.569092H50.8705V51.8376H0V0.569092ZM40.1603 7.39746C40.6014 6.45812 41.4867 5.67647 42.6557 5.67647C44.1887 5.59871 45.5575 6.78202 45.6748 8.5425C45.6747 8.78822 45.554 9.64307 45.4708 9.84524L39.5551 19.5404C38.9536 20.5637 39.0636 21.3423 39.3103 22.2007L48.2518 45.2593H11.5679C8.30447 45.2593 5.76107 42.6029 5.76107 39.2872L5.63867 8.78934C5.76205 4.73962 11.3643 4.7375 11.5679 8.66592V37.4017C11.5679 38.3068 12.3673 39.2872 13.3358 39.2872H40.2419L33.3131 22.6053C33.0756 22.0734 32.9867 21.4963 32.9867 20.8431C32.9867 20.1122 33.3109 19.008 33.755 18.0251L40.1603 7.39746ZM25.2555 8.66592C25.2555 6.70171 26.6928 5.6999 28.1318 5.69018C29.5707 5.68046 31.0148 6.66283 31.0148 8.66592V29.3932C31.0148 34.1335 27.5149 37.2851 23.2089 37.2851C19.0169 37.2851 15.5049 34.1335 15.5049 29.3932V8.66592C15.5049 4.7375 21.271 4.7375 21.271 8.66592V29.2287C21.271 31.9689 25.2555 32.2147 25.2555 29.2287V8.66592Z" fill="white"/>
<path d="M60.8367 6.59399V20.1584C60.8367 23.5487 60.4943 25.4336 57.7553 25.4336C57.2432 25.4336 56.9008 25.4336 56.3888 25.247V31.0852C57.4129 31.4646 58.0976 31.4646 58.9551 31.4646C66.6542 31.4646 66.9966 25.6233 66.9966 22.2299V12.4353H71.4445V31.0852H77.6013V6.59399H60.8367Z" fill="white"/>
<path d="M79.6555 6.59399L88.0393 24.3045L84.961 31.0852H91.6329L101.556 6.59399H94.884L91.2905 16.9547L87.0122 6.59399H79.6555Z" fill="white"/>
<path d="M103.438 31.0852H109.597V20.5347L115.927 31.0852H123.796L115.072 18.4632L123.626 6.59399H116.269L109.597 16.9547V6.59399H103.438V31.0852Z" fill="white"/>
<path d="M133.891 31.8412C142.102 31.8412 145.866 25.4338 145.866 18.8397C145.866 12.4355 142.102 6.02808 133.891 6.02808C125.85 6.02808 122.087 12.4355 122.087 18.8397C122.087 25.4338 125.85 31.8412 133.891 31.8412ZM133.891 25.9999C131.152 25.9999 128.416 23.5489 128.416 18.8397C128.416 14.1306 131.152 11.8694 133.891 11.8694C136.8 11.8694 139.536 14.1306 139.536 18.8397C139.536 23.5489 136.8 25.9999 133.891 25.9999Z" fill="white"/>
<path d="M148.947 6.59402V31.0852H154.934L163.487 16.3917V31.0852H169.478V6.59402H163.487L154.934 21.2906V6.59402H148.947ZM159.382 5.27521C161.948 5.27521 164.515 4.33277 165.714 1.50543L162.121 0C161.606 1.88489 160.067 2.07152 159.382 2.07152C158.87 2.07152 157.158 1.88489 156.815 0L153.225 1.50543C154.249 4.33277 156.988 5.27521 159.382 5.27521Z" fill="white"/>
<path d="M175.98 6.59399V20.1584C175.98 23.5487 175.634 25.4336 172.898 25.4336C172.386 25.4336 172.044 25.4336 171.529 25.247V31.0852C172.556 31.4646 173.241 31.4646 174.095 31.4646C181.794 31.4646 182.137 25.6233 182.137 22.2299V12.4353H186.585V31.0852H192.744V6.59399H175.98Z" fill="white"/>
<path d="M56.4376 44.83H57.3044V40.2857H62.3661V44.83H63.2329V35.9219H62.3661V39.5704H57.3044V35.9219H56.4376V44.83Z" fill="white"/>
<path d="M65.4385 44.83H70.1856V44.1146H66.3052V40.1987H70.0314V39.4833H66.3052V36.6404H70.1856V35.9219H65.4385V44.83Z" fill="white"/>
<path d="M75.8983 44.8299H76.7558V43.6044H77.1167C79.973 43.6044 81.1544 41.8999 81.1544 40.1146C81.1544 38.0244 79.6214 36.6403 77.1167 36.6403H76.7558V35.5703H75.8983V36.6403H75.5498C73.0297 36.6403 71.4998 38.0244 71.4998 40.1146C71.4998 41.8999 72.6811 43.6044 75.5498 43.6044H75.8983V44.8299ZM76.7558 37.3557C79.6214 37.393 80.2506 38.7429 80.2506 40.1146C80.2506 42.2545 78.841 42.8113 76.7558 42.8859V37.3557ZM75.8983 42.8859C73.8132 42.8113 72.4035 42.2545 72.4035 40.1146C72.4035 38.7429 73.0297 37.393 75.8983 37.3557V42.8859Z" fill="white"/>
<path d="M84.2848 44.83H85.1177V36.6404H87.4681V35.9219H81.9375V36.6404H84.2848V44.83Z" fill="white"/>
<path d="M88.4926 44.83H89.4674L91.8178 40.9172H92.5642V44.83H93.4341V35.9219H91.3952C88.7209 35.9219 88.3353 37.7103 88.3353 38.5004C88.3353 40.0058 89.5044 40.9172 90.8801 40.8674L88.4926 44.83ZM92.5642 40.1987H91.3119C90.6025 40.1987 89.1928 40.1147 89.1928 38.4133C89.1928 36.7617 90.6857 36.6404 91.3952 36.6404H92.5642V40.1987Z" fill="white"/>
<path d="M95.6519 44.83H96.5186V40.2857H101.58V44.83H102.447V35.9219H101.58V39.5704H96.5186V35.9219H95.6519V44.83Z" fill="white"/>
<path d="M103.711 44.83H104.581L105.796 41.9373H109.519L110.738 44.83H111.605L107.641 35.6917L103.711 44.83ZM106.111 41.2344L107.641 37.589L109.208 41.2344H106.111Z" fill="white"/>
<path d="M112.608 44.83H113.582L115.933 40.9172H116.679V44.83H117.546V35.9219H115.51C112.836 35.9219 112.45 37.7103 112.45 38.5004C112.45 40.0058 113.619 40.9172 114.992 40.8674L112.608 44.83ZM116.679 40.1987H115.427C114.714 40.1987 113.305 40.1147 113.305 38.4133C113.305 36.7617 114.801 36.6404 115.51 36.6404H116.679V40.1987Z" fill="white"/>
<path d="M122.694 44.83H123.56V40.5159L127.524 44.83H128.656L124.378 40.236L128.585 35.9219H127.524L123.56 40.0774V35.9219H122.694V44.83Z" fill="white"/>
<path d="M134.249 45.1099C136.877 45.1099 139.033 43.2032 139.033 40.3945C139.033 37.589 136.877 35.6917 134.249 35.6917C131.658 35.6917 129.502 37.589 129.502 40.3945C129.502 43.2032 131.658 45.1099 134.249 45.1099ZM134.249 44.3572C132.093 44.3572 130.406 42.7273 130.406 40.3945C130.406 38.0618 132.093 36.3977 134.249 36.3977C136.408 36.3977 138.13 38.0618 138.13 40.3945C138.13 42.7273 136.408 44.3572 134.249 44.3572Z" fill="white"/>
<path d="M140.227 44.8299H141.059L141.877 38.2546L145.131 45.2312L148.348 38.2546L149.218 44.8299H149.998L148.783 35.5703L145.131 43.5298L141.442 35.5703L140.227 44.8299Z" fill="white"/>
<path d="M151.628 35.9219V44.83H152.495V36.6404H157.556V44.83H158.423V35.9219H151.628Z" fill="white"/>
<path d="M159.69 44.83H160.557L161.772 41.9373H165.498L166.714 44.83H167.58L163.617 35.6917L159.69 44.83ZM162.087 41.2344L163.617 37.589L165.184 41.2344H162.087Z" fill="white"/>
<path d="M168.811 44.83H169.678V40.2857H174.739V44.83H175.609V35.9219H174.739V39.5704H169.678V35.9219H168.811V44.83Z" fill="white"/>
<path d="M177.812 35.9218V45.2312L183.864 37.7818V44.8299H184.718V35.5703L178.682 42.9699V35.9218H177.812Z" fill="white"/>
<path d="M186.67 44.83H187.645L189.995 40.9172H190.742V44.83H191.612V35.9219H189.576C186.899 35.9219 186.513 37.7103 186.513 38.5004C186.513 40.0058 187.682 40.9172 189.058 40.8674L186.67 44.83ZM190.742 40.1987H189.49C188.78 40.1987 187.37 40.1147 187.37 38.4133C187.37 36.7617 188.863 36.6404 189.576 36.6404H190.742V40.1987Z" fill="white"/>
</svg>
