<svg width="40" height="40" viewBox="0 0 40 40" fill="none" xmlns="http://www.w3.org/2000/svg">
<g clip-path="url(#clip0)">
<path d="M28.3327 40.0003C22.676 40.0003 16.666 38.247 16.666 35.0003C16.666 34.5403 17.0393 34.167 17.4993 34.167C17.9593 34.167 18.3327 34.5403 18.3327 35.0003C18.3327 36.392 22.136 38.3336 28.3327 38.3336C34.5294 38.3336 38.3327 36.392 38.3327 35.0003C38.3327 34.5403 38.706 34.167 39.166 34.167C39.626 34.167 39.9993 34.5403 39.9993 35.0003C39.9993 38.247 33.9893 40.0003 28.3327 40.0003Z" fill="#F36327"/>
<path d="M28.3327 40.0003C22.676 40.0003 16.666 38.247 16.666 35.0003C16.666 34.5403 17.0393 34.167 17.4993 34.167C17.9593 34.167 18.3327 34.5403 18.3327 35.0003C18.3327 36.392 22.136 38.3336 28.3327 38.3336C34.5294 38.3336 38.3327 36.392 38.3327 35.0003C38.3327 34.5403 38.706 34.167 39.166 34.167C39.626 34.167 39.9993 34.5403 39.9993 35.0003C39.9993 38.247 33.9893 40.0003 28.3327 40.0003Z" fill="url(#paint0_linear)" style="mix-blend-mode:overlay"/>
<path d="M28.3327 35.0003C22.676 35.0003 16.666 33.247 16.666 30.0003C16.666 29.5403 17.0393 29.167 17.4993 29.167C17.9593 29.167 18.3327 29.5403 18.3327 30.0003C18.3327 31.392 22.136 33.3336 28.3327 33.3336C34.5294 33.3336 38.3327 31.392 38.3327 30.0003C38.3327 29.5403 38.706 29.167 39.166 29.167C39.626 29.167 39.9993 29.5403 39.9993 30.0003C39.9993 33.247 33.9893 35.0003 28.3327 35.0003Z" fill="#F36327"/>
<path d="M28.3327 35.0003C22.676 35.0003 16.666 33.247 16.666 30.0003C16.666 29.5403 17.0393 29.167 17.4993 29.167C17.9593 29.167 18.3327 29.5403 18.3327 30.0003C18.3327 31.392 22.136 33.3336 28.3327 33.3336C34.5294 33.3336 38.3327 31.392 38.3327 30.0003C38.3327 29.5403 38.706 29.167 39.166 29.167C39.626 29.167 39.9993 29.5403 39.9993 30.0003C39.9993 33.247 33.9893 35.0003 28.3327 35.0003Z" fill="url(#paint1_linear)" style="mix-blend-mode:overlay"/>
<path d="M28.3327 30C22.676 30 16.666 28.2467 16.666 25C16.666 21.7533 22.676 20 28.3327 20C33.9893 20 39.9993 21.7533 39.9993 25C39.9993 28.2467 33.9893 30 28.3327 30ZM28.3327 21.6667C22.136 21.6667 18.3327 23.6083 18.3327 25C18.3327 26.3917 22.136 28.3333 28.3327 28.3333C34.5294 28.3333 38.3327 26.3917 38.3327 25C38.3327 23.6083 34.5294 21.6667 28.3327 21.6667Z" fill="#F36327"/>
<path d="M28.3327 30C22.676 30 16.666 28.2467 16.666 25C16.666 21.7533 22.676 20 28.3327 20C33.9893 20 39.9993 21.7533 39.9993 25C39.9993 28.2467 33.9893 30 28.3327 30ZM28.3327 21.6667C22.136 21.6667 18.3327 23.6083 18.3327 25C18.3327 26.3917 22.136 28.3333 28.3327 28.3333C34.5294 28.3333 38.3327 26.3917 38.3327 25C38.3327 23.6083 34.5294 21.6667 28.3327 21.6667Z" fill="url(#paint2_linear)" style="mix-blend-mode:overlay"/>
<path d="M39.1673 35.8337C38.7073 35.8337 38.334 35.4603 38.334 35.0003V25.0003C38.334 24.5403 38.7073 24.167 39.1673 24.167C39.6273 24.167 40.0006 24.5403 40.0006 25.0003V35.0003C40.0006 35.4603 39.6273 35.8337 39.1673 35.8337Z" fill="#F36327"/>
<path d="M39.1673 35.8337C38.7073 35.8337 38.334 35.4603 38.334 35.0003V25.0003C38.334 24.5403 38.7073 24.167 39.1673 24.167C39.6273 24.167 40.0006 24.5403 40.0006 25.0003V35.0003C40.0006 35.4603 39.6273 35.8337 39.1673 35.8337Z" fill="url(#paint3_linear)" style="mix-blend-mode:overlay"/>
<path d="M17.4994 35.8337C17.0394 35.8337 16.666 35.4603 16.666 35.0003V25.0003C16.666 24.5403 17.0394 24.167 17.4994 24.167C17.9594 24.167 18.3327 24.5403 18.3327 25.0003V35.0003C18.3327 35.4603 17.9594 35.8337 17.4994 35.8337Z" fill="#F36327"/>
<path d="M17.4994 35.8337C17.0394 35.8337 16.666 35.4603 16.666 35.0003V25.0003C16.666 24.5403 17.0394 24.167 17.4994 24.167C17.9594 24.167 18.3327 24.5403 18.3327 25.0003V35.0003C18.3327 35.4603 17.9594 35.8337 17.4994 35.8337Z" fill="url(#paint4_linear)" style="mix-blend-mode:overlay"/>
<path d="M11.6667 20.0003C6.01 20.0003 0 18.247 0 15.0003C0 14.5403 0.373333 14.167 0.833333 14.167C1.29333 14.167 1.66667 14.5403 1.66667 15.0003C1.66667 16.392 5.47 18.3337 11.6667 18.3337C17.8633 18.3337 21.6667 16.392 21.6667 15.0003C21.6667 14.5403 22.04 14.167 22.5 14.167C22.96 14.167 23.3333 14.5403 23.3333 15.0003C23.3333 18.247 17.3233 20.0003 11.6667 20.0003Z" fill="#F36327"/>
<path d="M11.6667 20.0003C6.01 20.0003 0 18.247 0 15.0003C0 14.5403 0.373333 14.167 0.833333 14.167C1.29333 14.167 1.66667 14.5403 1.66667 15.0003C1.66667 16.392 5.47 18.3337 11.6667 18.3337C17.8633 18.3337 21.6667 16.392 21.6667 15.0003C21.6667 14.5403 22.04 14.167 22.5 14.167C22.96 14.167 23.3333 14.5403 23.3333 15.0003C23.3333 18.247 17.3233 20.0003 11.6667 20.0003Z" fill="url(#paint5_linear)" style="mix-blend-mode:overlay"/>
<path d="M11.6667 15.0003C6.01 15.0003 0 13.247 0 10.0003C0 9.54033 0.373333 9.16699 0.833333 9.16699C1.29333 9.16699 1.66667 9.54033 1.66667 10.0003C1.66667 11.392 5.47 13.3337 11.6667 13.3337C17.8633 13.3337 21.6667 11.392 21.6667 10.0003C21.6667 9.54033 22.04 9.16699 22.5 9.16699C22.96 9.16699 23.3333 9.54033 23.3333 10.0003C23.3333 13.247 17.3233 15.0003 11.6667 15.0003Z" fill="#F36327"/>
<path d="M11.6667 15.0003C6.01 15.0003 0 13.247 0 10.0003C0 9.54033 0.373333 9.16699 0.833333 9.16699C1.29333 9.16699 1.66667 9.54033 1.66667 10.0003C1.66667 11.392 5.47 13.3337 11.6667 13.3337C17.8633 13.3337 21.6667 11.392 21.6667 10.0003C21.6667 9.54033 22.04 9.16699 22.5 9.16699C22.96 9.16699 23.3333 9.54033 23.3333 10.0003C23.3333 13.247 17.3233 15.0003 11.6667 15.0003Z" fill="url(#paint6_linear)" style="mix-blend-mode:overlay"/>
<path d="M11.6667 30.0003C6.01 30.0003 0 28.247 0 25.0003C0 24.5403 0.373333 24.167 0.833333 24.167C1.29333 24.167 1.66667 24.5403 1.66667 25.0003C1.66667 26.392 5.47 28.3336 11.6667 28.3336C12.5733 28.3336 13.3633 28.297 14.0783 28.222C14.53 28.172 14.9467 28.5053 14.995 28.962C15.0433 29.4186 14.7117 29.8303 14.255 29.8786C13.4783 29.962 12.6317 30.0003 11.6667 30.0003Z" fill="#F36327"/>
<path d="M11.6667 30.0003C6.01 30.0003 0 28.247 0 25.0003C0 24.5403 0.373333 24.167 0.833333 24.167C1.29333 24.167 1.66667 24.5403 1.66667 25.0003C1.66667 26.392 5.47 28.3336 11.6667 28.3336C12.5733 28.3336 13.3633 28.297 14.0783 28.222C14.53 28.172 14.9467 28.5053 14.995 28.962C15.0433 29.4186 14.7117 29.8303 14.255 29.8786C13.4783 29.962 12.6317 30.0003 11.6667 30.0003Z" fill="url(#paint7_linear)" style="mix-blend-mode:overlay"/>
<path d="M11.6667 35.0003C6.01 35.0003 0 33.247 0 30.0003C0 29.5403 0.373333 29.167 0.833333 29.167C1.29333 29.167 1.66667 29.5403 1.66667 30.0003C1.66667 31.392 5.47 33.3336 11.6667 33.3336C12.5733 33.3336 13.3633 33.297 14.0783 33.222C14.53 33.1636 14.9467 33.5053 14.995 33.962C15.0433 34.4186 14.7117 34.8303 14.255 34.8786C13.4783 34.962 12.6317 35.0003 11.6667 35.0003Z" fill="#F36327"/>
<path d="M11.6667 35.0003C6.01 35.0003 0 33.247 0 30.0003C0 29.5403 0.373333 29.167 0.833333 29.167C1.29333 29.167 1.66667 29.5403 1.66667 30.0003C1.66667 31.392 5.47 33.3336 11.6667 33.3336C12.5733 33.3336 13.3633 33.297 14.0783 33.222C14.53 33.1636 14.9467 33.5053 14.995 33.962C15.0433 34.4186 14.7117 34.8303 14.255 34.8786C13.4783 34.962 12.6317 35.0003 11.6667 35.0003Z" fill="url(#paint8_linear)" style="mix-blend-mode:overlay"/>
<path d="M11.6667 25.0003C6.01 25.0003 0 23.247 0 20.0003C0 19.5403 0.373333 19.167 0.833333 19.167C1.29333 19.167 1.66667 19.5403 1.66667 20.0003C1.66667 21.392 5.47 23.3337 11.6667 23.3337C12.5733 23.3337 13.3633 23.297 14.0783 23.222C14.53 23.1687 14.9467 23.5037 14.995 23.962C15.0433 24.4186 14.7117 24.8303 14.255 24.8786C13.4783 24.962 12.6317 25.0003 11.6667 25.0003Z" fill="#F36327"/>
<path d="M11.6667 25.0003C6.01 25.0003 0 23.247 0 20.0003C0 19.5403 0.373333 19.167 0.833333 19.167C1.29333 19.167 1.66667 19.5403 1.66667 20.0003C1.66667 21.392 5.47 23.3337 11.6667 23.3337C12.5733 23.3337 13.3633 23.297 14.0783 23.222C14.53 23.1687 14.9467 23.5037 14.995 23.962C15.0433 24.4186 14.7117 24.8303 14.255 24.8786C13.4783 24.962 12.6317 25.0003 11.6667 25.0003Z" fill="url(#paint9_linear)" style="mix-blend-mode:overlay"/>
<path d="M11.6667 10C6.01 10 0 8.24667 0 5C0 1.75333 6.01 0 11.6667 0C17.3233 0 23.3333 1.75333 23.3333 5C23.3333 8.24667 17.3233 10 11.6667 10ZM11.6667 1.66667C5.47 1.66667 1.66667 3.60833 1.66667 5C1.66667 6.39167 5.47 8.33333 11.6667 8.33333C17.8633 8.33333 21.6667 6.39167 21.6667 5C21.6667 3.60833 17.8633 1.66667 11.6667 1.66667Z" fill="#F36327"/>
<path d="M11.6667 10C6.01 10 0 8.24667 0 5C0 1.75333 6.01 0 11.6667 0C17.3233 0 23.3333 1.75333 23.3333 5C23.3333 8.24667 17.3233 10 11.6667 10ZM11.6667 1.66667C5.47 1.66667 1.66667 3.60833 1.66667 5C1.66667 6.39167 5.47 8.33333 11.6667 8.33333C17.8633 8.33333 21.6667 6.39167 21.6667 5C21.6667 3.60833 17.8633 1.66667 11.6667 1.66667Z" fill="url(#paint10_linear)" style="mix-blend-mode:overlay"/>
<path d="M0.833333 30.8337C0.373333 30.8337 0 30.4603 0 30.0003V5.00033C0 4.54033 0.373333 4.16699 0.833333 4.16699C1.29333 4.16699 1.66667 4.54033 1.66667 5.00033V30.0003C1.66667 30.4603 1.29333 30.8337 0.833333 30.8337Z" fill="#F36327"/>
<path d="M0.833333 30.8337C0.373333 30.8337 0 30.4603 0 30.0003V5.00033C0 4.54033 0.373333 4.16699 0.833333 4.16699C1.29333 4.16699 1.66667 4.54033 1.66667 5.00033V30.0003C1.66667 30.4603 1.29333 30.8337 0.833333 30.8337Z" fill="url(#paint11_linear)" style="mix-blend-mode:overlay"/>
<path d="M22.4995 15.8337C22.0395 15.8337 21.6661 15.4603 21.6661 15.0003V5.00033C21.6661 4.54033 22.0395 4.16699 22.4995 4.16699C22.9595 4.16699 23.3328 4.54033 23.3328 5.00033V15.0003C23.3328 15.4603 22.9595 15.8337 22.4995 15.8337Z" fill="#F36327"/>
<path d="M22.4995 15.8337C22.0395 15.8337 21.6661 15.4603 21.6661 15.0003V5.00033C21.6661 4.54033 22.0395 4.16699 22.4995 4.16699C22.9595 4.16699 23.3328 4.54033 23.3328 5.00033V15.0003C23.3328 15.4603 22.9595 15.8337 22.4995 15.8337Z" fill="url(#paint12_linear)" style="mix-blend-mode:overlay"/>
</g>
<defs>
<linearGradient id="paint0_linear" x1="20.1335" y1="21.2689" x2="20.1335" y2="45.4548" gradientUnits="userSpaceOnUse">
<stop stop-color="white"/>
<stop offset="1" stop-color="white" stop-opacity="0"/>
</linearGradient>
<linearGradient id="paint1_linear" x1="20.1335" y1="16.2689" x2="20.1335" y2="40.4548" gradientUnits="userSpaceOnUse">
<stop stop-color="white"/>
<stop offset="1" stop-color="white" stop-opacity="0"/>
</linearGradient>
<linearGradient id="paint2_linear" x1="20.1335" y1="-2.11111" x2="20.1335" y2="39.3507" gradientUnits="userSpaceOnUse">
<stop stop-color="white"/>
<stop offset="1" stop-color="white" stop-opacity="0"/>
</linearGradient>
<linearGradient id="paint3_linear" x1="38.5817" y1="-1.6293" x2="38.5817" y2="46.7427" gradientUnits="userSpaceOnUse">
<stop stop-color="white"/>
<stop offset="1" stop-color="white" stop-opacity="0"/>
</linearGradient>
<linearGradient id="paint4_linear" x1="16.9137" y1="-1.6293" x2="16.9137" y2="46.7427" gradientUnits="userSpaceOnUse">
<stop stop-color="white"/>
<stop offset="1" stop-color="white" stop-opacity="0"/>
</linearGradient>
<linearGradient id="paint5_linear" x1="3.4675" y1="1.26884" x2="3.46749" y2="25.4549" gradientUnits="userSpaceOnUse">
<stop stop-color="white"/>
<stop offset="1" stop-color="white" stop-opacity="0"/>
</linearGradient>
<linearGradient id="paint6_linear" x1="3.4675" y1="-3.73115" x2="3.46749" y2="20.4549" gradientUnits="userSpaceOnUse">
<stop stop-color="white"/>
<stop offset="1" stop-color="white" stop-opacity="0"/>
</linearGradient>
<linearGradient id="paint7_linear" x1="2.22906" y1="11.2689" x2="2.22906" y2="35.4548" gradientUnits="userSpaceOnUse">
<stop stop-color="white"/>
<stop offset="1" stop-color="white" stop-opacity="0"/>
</linearGradient>
<linearGradient id="paint8_linear" x1="2.22906" y1="16.2689" x2="2.22906" y2="40.4548" gradientUnits="userSpaceOnUse">
<stop stop-color="white"/>
<stop offset="1" stop-color="white" stop-opacity="0"/>
</linearGradient>
<linearGradient id="paint9_linear" x1="2.22906" y1="6.26887" x2="2.22906" y2="30.4549" gradientUnits="userSpaceOnUse">
<stop stop-color="white"/>
<stop offset="1" stop-color="white" stop-opacity="0"/>
</linearGradient>
<linearGradient id="paint10_linear" x1="3.4675" y1="-22.1111" x2="3.46749" y2="19.3507" gradientUnits="userSpaceOnUse">
<stop stop-color="white"/>
<stop offset="1" stop-color="white" stop-opacity="0"/>
</linearGradient>
<linearGradient id="paint11_linear" x1="0.247678" y1="-54.796" x2="0.247638" y2="55.7687" gradientUnits="userSpaceOnUse">
<stop stop-color="white"/>
<stop offset="1" stop-color="white" stop-opacity="0"/>
</linearGradient>
<linearGradient id="paint12_linear" x1="21.9138" y1="-21.6293" x2="21.9138" y2="26.7428" gradientUnits="userSpaceOnUse">
<stop stop-color="white"/>
<stop offset="1" stop-color="white" stop-opacity="0"/>
</linearGradient>
<clipPath id="clip0">
<rect width="40" height="40" fill="white"/>
</clipPath>
</defs>
</svg>
