<svg width="46" height="36" viewBox="0 0 46 36" fill="none" xmlns="http://www.w3.org/2000/svg">
<path d="M41.6562 3.75C40.6577 3.75117 39.6929 4.11184 38.9384 4.76601C38.1839 5.42019 37.6902 6.32415 37.5475 7.3125H25.375V8.5H37.5V31.6562C37.5 31.8137 37.5626 31.9647 37.6739 32.0761C37.7853 32.1874 37.9363 32.25 38.0938 32.25C38.2512 32.25 38.4022 32.1874 38.5136 32.0761C38.6249 31.9647 38.6875 31.8137 38.6875 31.6562C38.6875 30.8689 39.0003 30.1138 39.557 29.557C40.1138 29.0003 40.8689 28.6875 41.6562 28.6875C42.4436 28.6875 43.1987 29.0003 43.7555 29.557C44.3122 30.1138 44.625 30.8689 44.625 31.6562V31.7809C44.6234 32.5347 44.3233 33.2572 43.7903 33.7903C43.2572 34.3233 42.5347 34.6234 41.7809 34.625H1.375V19.7812C4 24 9.76723 27.1604 12.28 28.6976C14.7928 30.2349 17.6793 31.0529 20.625 31.0625C20.7825 31.0625 20.9335 30.9999 21.0448 30.8886C21.1562 30.7772 21.2188 30.6262 21.2188 30.4688C21.2188 30.3113 21.1562 30.1603 21.0448 30.0489C20.9335 29.9376 20.7825 29.875 20.625 29.875C18.3968 29.8707 16.1985 29.3616 14.1953 28.3859L14.564 27.0107C14.9311 26.988 15.2816 26.8492 15.5648 26.6144C15.848 26.3797 16.0493 26.0611 16.1398 25.7045L18.0944 18.4156C18.5383 18.4977 18.9869 18.5515 19.4375 18.5765V19.1875C19.4375 19.345 19.5001 19.496 19.6114 19.6073C19.7228 19.7187 19.8738 19.7812 20.0312 19.7812C20.1887 19.7812 20.3397 19.7187 20.4511 19.6073C20.5624 19.496 20.625 19.345 20.625 19.1875V18.5765C21.0756 18.5519 21.5242 18.4985 21.9681 18.4168L23.9221 25.7027C24.0123 26.0595 24.2136 26.3784 24.497 26.6133C24.7804 26.8481 25.1311 26.9867 25.4985 27.009L25.9889 28.8401C26.0226 28.9666 26.097 29.0784 26.2008 29.1581C26.3045 29.2379 26.4316 29.2812 26.5625 29.2812C26.6144 29.2812 26.6661 29.2744 26.7163 29.2611C26.7916 29.2409 26.8622 29.206 26.9241 29.1586C26.9859 29.1111 27.0379 29.0519 27.0768 28.9843C27.1158 28.9168 27.1411 28.8422 27.1513 28.7649C27.1614 28.6876 27.1563 28.609 27.1361 28.5337L26.6462 26.7068C26.9475 26.4985 27.1774 26.2026 27.3049 25.8592C27.4323 25.5158 27.4511 25.1416 27.3587 24.7872L23.4625 10.2474C24.0811 9.34415 24.3172 8.23288 24.1193 7.15617C23.9214 6.07947 23.3055 5.12478 22.4062 4.5005V2.5625C22.4062 1.93261 22.156 1.32852 21.7106 0.883121C21.2652 0.437723 20.6611 0.1875 20.0312 0.1875C19.4014 0.1875 18.7973 0.437723 18.3519 0.883121C17.9065 1.32852 17.6562 1.93261 17.6562 2.5625V4.5005C16.757 5.12478 16.1411 6.07947 15.9432 7.15617C15.7453 8.23288 15.9814 9.34415 16.6 10.2474L12.7002 24.7895C12.6081 25.1439 12.6275 25.518 12.7556 25.8609C12.8837 26.2039 13.1144 26.499 13.4163 26.7062L13.1194 27.8105C9.85025 25.8978 2.56207 21.1356 1.5 17.5L1.375 8.5H14.6875V7.3125H0.1875V35.8125H41.7809C42.8501 35.8109 43.875 35.3853 44.6308 34.6291C45.3866 33.8729 45.8116 32.8477 45.8125 31.7786V7.90625C45.8112 6.80433 45.373 5.7479 44.5938 4.96873C43.8146 4.18955 42.7582 3.75126 41.6562 3.75ZM20.625 17.3706V16.8125C20.625 16.655 20.5624 16.504 20.4511 16.3927C20.3397 16.2813 20.1887 16.2188 20.0312 16.2188C19.8738 16.2188 19.7228 16.2813 19.6114 16.3927C19.5001 16.504 19.4375 16.655 19.4375 16.8125V17.3706C19.0922 17.3499 18.7483 17.3103 18.4073 17.2519L19.8015 12.0518C19.8781 12.056 19.9535 12.0637 20.0312 12.0637C20.109 12.0637 20.1844 12.056 20.261 12.0518L21.6552 17.2519C21.3142 17.3103 20.9703 17.3499 20.625 17.3706ZM26.214 25.0923C26.2535 25.2438 26.2321 25.4048 26.1544 25.5407C26.0767 25.6767 25.9489 25.7768 25.7983 25.8197H25.7948C25.6434 25.8598 25.4822 25.8385 25.3465 25.7603C25.2793 25.7213 25.2206 25.6693 25.1738 25.6073C25.127 25.5453 25.0931 25.4746 25.074 25.3993L21.4272 11.8161C21.8111 11.6785 22.1726 11.4851 22.5001 11.2419L26.214 25.0923ZM18.8438 2.5625C18.8438 2.24756 18.9689 1.94551 19.1916 1.72281C19.4143 1.50011 19.7163 1.375 20.0312 1.375C20.3462 1.375 20.6482 1.50011 20.8709 1.72281C21.0936 1.94551 21.2188 2.24756 21.2188 2.5625V3.92813C20.4443 3.69458 19.6182 3.69458 18.8438 3.92813V2.5625ZM20.0312 4.9375C20.6184 4.9375 21.1924 5.11161 21.6806 5.43782C22.1688 5.76404 22.5493 6.22769 22.774 6.77016C22.9987 7.31263 23.0575 7.90954 22.943 8.48542C22.8284 9.06131 22.5457 9.59029 22.1305 10.0055C21.7153 10.4207 21.1863 10.7034 20.6104 10.818C20.0345 10.9325 19.4376 10.8737 18.8952 10.649C18.3527 10.4243 17.889 10.0438 17.5628 9.5556C17.2366 9.06739 17.0625 8.49341 17.0625 7.90625C17.0634 7.11918 17.3765 6.36461 17.9331 5.80807C18.4896 5.25152 19.2442 4.93844 20.0312 4.9375ZM13.8479 25.0947L17.5624 11.2419C17.8899 11.4851 18.2514 11.6785 18.6353 11.8161L14.9921 25.4023C14.9514 25.5526 14.8533 25.6808 14.7189 25.7594C14.5845 25.8381 14.4246 25.8608 14.2737 25.8227H14.2683C14.1167 25.7808 13.9877 25.681 13.909 25.5448C13.8304 25.4086 13.8084 25.2469 13.8479 25.0947ZM44.625 28.7498C44.2384 28.3542 43.7766 28.0399 43.2668 27.8252C42.757 27.6106 42.2094 27.5001 41.6562 27.5001C41.1031 27.5001 40.5555 27.6106 40.0457 27.8252C39.5359 28.0399 39.0741 28.3542 38.6875 28.7498V7.90625C38.6875 7.11889 39.0003 6.36378 39.557 5.80703C40.1138 5.25028 40.8689 4.9375 41.6562 4.9375C42.4436 4.9375 43.1987 5.25028 43.7555 5.80703C44.3122 6.36378 44.625 7.11889 44.625 7.90625V28.7498Z" fill="black"/>
</svg>
