<svg width="38" height="38" viewBox="0 0 38 38" fill="none" xmlns="http://www.w3.org/2000/svg">
<path d="M2.78514 29.934H3.50432V22.7224C3.50439 21.1427 4.78961 19.8574 6.36926 19.8574H9.28956C9.90319 19.8574 10.4024 20.3566 10.4024 20.9702V22.1935H11.1517C11.4438 22.1935 11.6805 22.4302 11.6805 22.7224C11.6805 23.0145 11.4438 23.2512 11.1517 23.2512H4.56194V30.0076C5.23769 30.2167 5.73004 30.8473 5.73004 31.5909V36.9072C5.73004 36.9191 5.72863 36.9306 5.72828 36.9424H26.1189C26.4109 36.9424 26.6477 37.1791 26.6477 37.4712C26.6477 37.7633 26.4109 38 26.1189 38H1.65702C0.74338 38 8.58307e-05 37.2567 8.58307e-05 36.3431V32.719C8.58307e-05 31.1833 1.24948 29.934 2.78514 29.934ZM9.34476 20.9702C9.34476 20.9398 9.31995 20.915 9.28956 20.915H6.36926C5.55666 20.915 4.86773 21.4542 4.64105 22.1935H9.34476V20.9702ZM1.0577 36.3431C1.0577 36.6735 1.32655 36.9424 1.65702 36.9424H4.61715H4.6371C4.65656 36.9424 4.67235 36.9265 4.67235 36.9072V35.6638H2.8651C2.57306 35.6638 2.33629 35.4271 2.33629 35.135C2.33629 34.8429 2.57306 34.6062 2.8651 34.6062H4.67235V33.3277H2.8651C2.57306 33.3277 2.33629 33.091 2.33629 32.7989C2.33629 32.5068 2.57306 32.2701 2.8651 32.2701H4.67235V31.5909C4.67235 31.2604 4.40351 30.9916 4.07304 30.9916H2.78514C1.83265 30.9916 1.0577 31.7665 1.0577 32.719V36.3431Z" fill="black"/>
<path d="M14.217 23.251C13.9249 23.251 13.6882 23.0143 13.6882 22.7222C13.6882 22.4301 13.9249 22.1934 14.217 22.1934H14.9671V19.4719C13.6698 18.4078 12.7989 16.8424 12.653 15.0745H11.9916C11.0559 15.0745 10.2947 14.3133 10.2947 13.3777V11.0415C10.2947 10.6765 10.4109 10.3384 10.6078 10.0613C10.4144 9.86097 10.2947 9.5891 10.2947 9.28937V8.70536C10.2947 7.76965 11.0559 7.00852 11.9916 7.00852H12.0468V4.61712C12.0468 2.71525 13.5941 1.16803 15.4959 1.16803H17.0112V1.09287C17.0112 0.490239 17.5015 0 18.1041 0H19.8962C20.4988 0 20.989 0.490239 20.989 1.09287V1.16796H22.5043C24.4061 1.16796 25.9534 2.71518 25.9534 4.61705L25.9534 7.00845H26.0085C26.9441 7.00845 27.7053 7.76965 27.7053 8.70529V9.2893C27.7053 9.58903 27.5857 9.8609 27.3923 10.0612C27.5891 10.3383 27.7053 10.6764 27.7053 11.0413V13.3775C27.7053 14.3132 26.9441 15.0744 26.0085 15.0744H25.347C25.201 16.8422 24.3303 18.4075 23.0331 19.4715V22.1932H27.5977V20.9699C27.5977 20.3563 28.0969 19.8571 28.7105 19.8571H31.6308C33.2106 19.8571 34.4957 21.1423 34.4958 22.722V29.9338H35.2149C36.7506 29.9338 38 31.1832 38 32.7188V36.3429C38 37.2566 37.2567 37.9999 36.3431 37.9999H29.1841C28.8921 37.9999 28.6553 37.7632 28.6553 37.4711C28.6553 37.1789 28.8921 36.9422 29.1841 36.9422H32.2719C32.2715 36.9304 32.2701 36.9189 32.2701 36.907V31.5907C32.2701 30.8472 32.7624 30.2165 33.4382 30.0075V23.251H14.217ZM11.3523 13.3776C11.3523 13.7301 11.639 14.0168 11.9916 14.0168H12.6309V10.4021H11.9901C11.6383 10.4029 11.3523 10.6893 11.3523 11.0413L11.3523 13.3776ZM15.4958 2.22557C14.1772 2.22557 13.1044 3.29841 13.1044 4.61705V7.00845H14.3829V6.36923C14.3829 6.07712 14.6197 5.84042 14.9117 5.84042C15.2037 5.84042 15.4405 6.07712 15.4405 6.36923V7.00845H17.0111V2.22557H15.4958ZM19.9314 1.09287C19.9314 1.07348 19.9156 1.05761 19.8961 1.05761H18.104C18.0846 1.05761 18.0688 1.07348 18.0688 1.09287V7.00845H19.9314V1.09287ZM24.8957 4.61705C24.8957 3.29841 23.8229 2.22557 22.5042 2.22557H20.9889V7.00845H22.5595V6.36923C22.5595 6.07712 22.7962 5.84042 23.0883 5.84042C23.3803 5.84042 23.6171 6.07712 23.6171 6.36923V7.00845H24.8955L24.8957 4.61705ZM26.6477 8.70536C26.6477 8.35289 26.361 8.06613 26.0085 8.06613H11.9916C11.639 8.06613 11.3523 8.35289 11.3523 8.70536V9.28937C11.3523 9.31983 11.3771 9.34458 11.4075 9.34458H26.5925C26.623 9.34458 26.6477 9.31976 26.6477 9.28937V8.70536ZM26.6477 13.3776V11.0415C26.6477 10.689 26.361 10.4023 26.0085 10.4023H25.3692L25.3691 14.017H26.0085C26.361 14.017 26.6477 13.7301 26.6477 13.3776ZM24.3115 14.546L24.3116 10.4023H13.6885V14.546C13.6885 17.4747 16.0712 19.8575 19 19.8575C21.9288 19.8575 24.3115 17.4747 24.3115 14.546ZM21.9755 20.1758C21.0868 20.6474 20.0741 20.9151 19 20.9151C17.9258 20.9151 16.9132 20.6474 16.0246 20.1759V22.1934H21.9755L21.9755 20.1758ZM31.6308 20.9149H28.7105C28.6801 20.9149 28.6553 20.9397 28.6553 20.9701V22.1934H33.359C33.1324 21.454 32.4434 20.9149 31.6308 20.9149ZM33.3277 32.2699H35.1349C35.427 32.2699 35.6637 32.5066 35.6637 32.7987C35.6637 33.0908 35.427 33.3275 35.1349 33.3275H33.3277V34.606H35.1349C35.427 34.606 35.6637 34.8427 35.6637 35.1349C35.6637 35.427 35.427 35.6637 35.1349 35.6637H33.3277V36.907C33.3277 36.9264 33.3435 36.9422 33.3629 36.9422H33.3829H36.3431C36.6735 36.9422 36.9424 36.6733 36.9424 36.3429V32.7188C36.9424 31.7663 36.1674 30.9914 35.2149 30.9914H33.927C33.5965 30.9914 33.3277 31.2603 33.3277 31.5907V32.2699Z" fill="black"/>
</svg>
