<svg width="55" height="31" viewBox="0 0 55 31" fill="none" xmlns="http://www.w3.org/2000/svg">
<path d="M8.70474 18.0424C11.676 18.0424 14.1653 15.6151 14.1653 12.718C14.1653 9.82093 11.7563 7.39368 8.70474 7.39368C5.65321 7.39368 3.24414 9.82093 3.24414 12.718C3.24414 15.6151 5.65321 18.0424 8.70474 18.0424ZM8.70474 8.88137C10.7926 8.88137 12.5593 10.604 12.5593 12.6397C12.5593 14.6754 10.8729 16.3981 8.70474 16.3981C6.53661 16.3981 4.85022 14.6754 4.85022 12.6397C4.85022 10.604 6.5365 8.88137 8.70474 8.88137Z" fill="black"/>
<path d="M0.802986 29.8659H16.1409C16.6227 29.8659 16.9439 29.5527 16.9439 29.083V23.7586C16.9439 20.8615 14.5348 18.5909 11.6439 18.5909H5.29999C2.40906 18.5126 0 20.8615 0 23.7586V29.083C0 29.4745 0.321237 29.8659 0.802986 29.8659ZM1.60608 23.7586C1.60608 21.7229 3.29247 20.0786 5.29999 20.0786H11.5636C13.6514 20.0786 15.2575 21.7229 15.2575 23.6803V28.2217H1.60597V23.7586H1.60608Z" fill="black"/>
<path d="M32.4722 6.31274C32.4722 3.33735 30.0632 0.988403 27.0116 0.988403C23.9601 0.988403 21.551 3.41566 21.551 6.31274C21.551 9.20983 23.9601 11.6371 27.0116 11.6371C30.0632 11.6371 32.4722 9.28814 32.4722 6.31274ZM23.157 6.31274C23.157 4.19871 24.8434 2.5544 27.0115 2.5544C29.1797 2.5544 30.866 4.27701 30.866 6.31274C30.866 8.34847 29.1797 10.0711 27.0115 10.0711C24.8434 10.0711 23.157 8.42688 23.157 6.31274Z" fill="black"/>
<path d="M19.0265 17.997V29.648C19.0265 30.1178 19.3477 30.4309 19.8295 30.4309H35.1674C35.6492 30.4309 35.9704 30.1177 35.9704 29.648V17.997C35.9704 15.0999 33.5613 12.8293 30.6704 12.8293H24.4068C21.4356 12.751 19.0265 15.0999 19.0265 17.997ZM20.6326 17.997C20.6326 15.9613 22.319 14.3953 24.3265 14.3953H30.5901C32.6779 14.3953 34.284 16.0396 34.284 17.997V28.865H20.6325L20.6326 17.997Z" fill="black"/>
<path d="M40.9395 12.6399C40.9395 15.6153 43.3485 17.9642 46.4001 17.9642C49.3713 17.9642 51.8607 15.537 51.8607 12.6399C51.8607 9.74281 49.4516 7.31555 46.4001 7.31555C43.3485 7.31555 40.9395 9.6646 40.9395 12.6399ZM50.1744 12.6399C50.1744 14.7539 48.488 16.3982 46.3199 16.3982C44.1517 16.3982 42.4653 14.6756 42.4653 12.6399C42.4653 10.6042 44.1517 8.88155 46.3199 8.88155C48.488 8.88155 50.1744 10.6042 50.1744 12.6399Z" fill="black"/>
<path d="M49.6163 18.5118H43.3527C40.3815 18.5118 38.0527 20.8608 38.0527 23.6796V29.0039C38.0527 29.4737 38.374 29.7869 38.8557 29.7869H54.1133C54.5952 29.7869 54.9163 29.4736 54.9163 29.0039V23.6796C54.9163 20.8608 52.5072 18.5118 49.6163 18.5118ZM39.5784 28.2993V23.7579C39.5784 21.7221 41.2648 20.1561 43.2723 20.1561H49.5359C51.6237 20.1561 53.2298 21.8005 53.2298 23.7579V28.2993H39.5784Z" fill="black"/>
</svg>
