<svg width="44" height="46" viewBox="0 0 44 46" fill="none" xmlns="http://www.w3.org/2000/svg">
<path d="M38.6895 16.8667H20.4826C19.8791 16.8667 19.3002 17.109 18.8734 17.5404C18.4466 17.9717 18.2068 18.5567 18.2068 19.1667V22.2334C18.2068 22.8434 18.4466 23.4284 18.8734 23.8597C19.3002 24.291 19.8791 24.5334 20.4826 24.5334H38.6895C39.2931 24.5334 39.872 24.291 40.2988 23.8597C40.7256 23.4284 40.9654 22.8434 40.9654 22.2334V19.1667C40.9654 18.5567 40.7256 17.9717 40.2988 17.5404C39.872 17.109 39.2931 16.8667 38.6895 16.8667ZM39.4482 22.2334C39.4482 22.4367 39.3682 22.6317 39.226 22.7755C39.0837 22.9193 38.8907 23 38.6895 23H20.4826C20.2815 23 20.0885 22.9193 19.9462 22.7755C19.804 22.6317 19.724 22.4367 19.724 22.2334V19.1667C19.724 18.9634 19.804 18.7684 19.9462 18.6246C20.0885 18.4808 20.2815 18.4 20.4826 18.4H38.6895C38.8907 18.4 39.0837 18.4808 39.226 18.6246C39.3682 18.7684 39.4482 18.9634 39.4482 19.1667V22.2334Z" fill="#F36327"/>
<path d="M23.5171 27.6001H18.9654C18.7642 27.6001 18.5713 27.6809 18.429 27.8246C18.2867 27.9684 18.2068 28.1634 18.2068 28.3668V32.9668C18.2068 33.1701 18.2867 33.3651 18.429 33.5089C18.5713 33.6527 18.7642 33.7334 18.9654 33.7334H23.5171C23.7183 33.7334 23.9113 33.6527 24.0536 33.5089C24.1958 33.3651 24.2757 33.1701 24.2757 32.9668V28.3668C24.2757 28.1634 24.1958 27.9684 24.0536 27.8246C23.9113 27.6809 23.7183 27.6001 23.5171 27.6001ZM22.7585 32.2001H19.724V29.1334H22.7585V32.2001Z" fill="#F36327"/>
<path d="M23.5171 35.2666H18.9654C18.7642 35.2666 18.5713 35.3474 18.429 35.4912C18.2867 35.6349 18.2068 35.8299 18.2068 36.0333V40.6333C18.2068 40.8366 18.2867 41.0316 18.429 41.1754C18.5713 41.3192 18.7642 41.3999 18.9654 41.3999H23.5171C23.7183 41.3999 23.9113 41.3192 24.0536 41.1754C24.1958 41.0316 24.2757 40.8366 24.2757 40.6333V36.0333C24.2757 35.8299 24.1958 35.6349 24.0536 35.4912C23.9113 35.3474 23.7183 35.2666 23.5171 35.2666ZM22.7585 39.8666H19.724V36.7999H22.7585V39.8666Z" fill="#F36327"/>
<path d="M31.8621 27.6001H27.3104C27.1092 27.6001 26.9162 27.6809 26.774 27.8246C26.6317 27.9684 26.5518 28.1634 26.5518 28.3668V32.9668C26.5518 33.1701 26.6317 33.3651 26.774 33.5089C26.9162 33.6527 27.1092 33.7334 27.3104 33.7334H31.8621C32.0633 33.7334 32.2563 33.6527 32.3985 33.5089C32.5408 33.3651 32.6207 33.1701 32.6207 32.9668V28.3668C32.6207 28.1634 32.5408 27.9684 32.3985 27.8246C32.2563 27.6809 32.0633 27.6001 31.8621 27.6001ZM31.1035 32.2001H28.069V29.1334H31.1035V32.2001Z" fill="#F36327"/>
<path d="M31.8621 35.2666H27.3104C27.1092 35.2666 26.9162 35.3474 26.774 35.4912C26.6317 35.6349 26.5518 35.8299 26.5518 36.0333V40.6333C26.5518 40.8366 26.6317 41.0316 26.774 41.1754C26.9162 41.3192 27.1092 41.3999 27.3104 41.3999H31.8621C32.0633 41.3999 32.2563 41.3192 32.3985 41.1754C32.5408 41.0316 32.6207 40.8366 32.6207 40.6333V36.0333C32.6207 35.8299 32.5408 35.6349 32.3985 35.4912C32.2563 35.3474 32.0633 35.2666 31.8621 35.2666ZM31.1035 39.8666H28.069V36.7999H31.1035V39.8666Z" fill="#F36327"/>
<path d="M40.2068 27.6001H35.6551C35.4539 27.6001 35.2609 27.6809 35.1187 27.8246C34.9764 27.9684 34.8965 28.1634 34.8965 28.3668V32.9668C34.8965 33.1701 34.9764 33.3651 35.1187 33.5089C35.2609 33.6527 35.4539 33.7334 35.6551 33.7334H40.2068C40.408 33.7334 40.601 33.6527 40.7433 33.5089C40.8855 33.3651 40.9655 33.1701 40.9655 32.9668V28.3668C40.9655 28.1634 40.8855 27.9684 40.7433 27.8246C40.601 27.6809 40.408 27.6001 40.2068 27.6001ZM39.4482 32.2001H36.4137V29.1334H39.4482V32.2001Z" fill="#F36327"/>
<path d="M40.2068 35.2666H35.6551C35.4539 35.2666 35.2609 35.3474 35.1187 35.4912C34.9764 35.6349 34.8965 35.8299 34.8965 36.0333V40.6333C34.8965 40.8366 34.9764 41.0316 35.1187 41.1754C35.2609 41.3192 35.4539 41.3999 35.6551 41.3999H40.2068C40.408 41.3999 40.601 41.3192 40.7433 41.1754C40.8855 41.0316 40.9655 40.8366 40.9655 40.6333V36.0333C40.9655 35.8299 40.8855 35.6349 40.7433 35.4912C40.601 35.3474 40.408 35.2666 40.2068 35.2666ZM39.4482 39.8666H36.4137V36.7999H39.4482V39.8666Z" fill="#F36327"/>
<path d="M43.2414 0H2.27586C2.07466 0 1.88171 0.0807735 1.73944 0.224551C1.59717 0.368329 1.51724 0.563334 1.51724 0.766667V20.0744C1.07503 20.2324 0.691931 20.5246 0.420342 20.9111C0.148753 21.2975 0.00194432 21.7593 0 22.2333V40.6333C0 41.2433 0.239778 41.8283 0.666585 42.2597C1.09339 42.691 1.67227 42.9333 2.27586 42.9333H15.2483C15.4243 43.7986 15.8902 44.576 16.5673 45.1346C17.2444 45.6933 18.0914 45.9989 18.9655 46H40.2069C41.2125 45.9988 42.1766 45.5945 42.8877 44.8759C43.5988 44.1573 43.9988 43.183 44 42.1667V0.766667C44 0.563334 43.9201 0.368329 43.7778 0.224551C43.6355 0.0807735 43.4426 0 43.2414 0ZM42.4828 1.53333V14.5866C42.0361 14.2381 41.5175 13.9957 40.9655 13.8774V6.9C40.9655 6.69667 40.8856 6.50166 40.7433 6.35788C40.6011 6.21411 40.4081 6.13333 40.2069 6.13333C39.6033 6.13333 39.0244 5.89101 38.5976 5.45968C38.1708 5.02835 37.931 4.44333 37.931 3.83333C37.931 3.63 37.8511 3.435 37.7088 3.29122C37.5666 3.14744 37.3736 3.06667 37.1724 3.06667H8.34483C8.14363 3.06667 7.95067 3.14744 7.8084 3.29122C7.66613 3.435 7.58621 3.63 7.58621 3.83333C7.58621 4.44333 7.34643 5.02835 6.91962 5.45968C6.49282 5.89101 5.91394 6.13333 5.31034 6.13333C5.10915 6.13333 4.91619 6.21411 4.77392 6.35788C4.63165 6.50166 4.55172 6.69667 4.55172 6.9V14.5667C4.55172 14.77 4.63165 14.965 4.77392 15.1088C4.91619 15.2526 5.10915 15.3333 5.31034 15.3333C5.91394 15.3333 6.49282 15.5757 6.91962 16.007C7.34643 16.4383 7.58621 17.0233 7.58621 17.6333C7.58621 17.8367 7.66613 18.0317 7.8084 18.1754C7.95067 18.3192 8.14363 18.4 8.34483 18.4H15.1724V19.9333H3.03448V1.53333H42.4828ZM2.27586 21.4667H15.1724V26.0667H1.51724V22.2333C1.51724 22.03 1.59717 21.835 1.73944 21.6912C1.88171 21.5474 2.07466 21.4667 2.27586 21.4667ZM15.1724 27.6V29.1333H1.51724V27.6H15.1724ZM1.51724 40.6333V30.6667H15.1724V41.4H2.27586C2.07466 41.4 1.88171 41.3192 1.73944 41.1754C1.59717 41.0317 1.51724 40.8367 1.51724 40.6333ZM15.2483 16.8667H9.02759C8.87773 16.1305 8.51759 15.4549 7.99173 14.9235C7.46588 14.3921 6.79738 14.0281 6.06897 13.8767V7.59C6.79738 7.43855 7.46588 7.0746 7.99173 6.54316C8.51759 6.01173 8.87773 5.33614 9.02759 4.6H36.4897C36.6395 5.33614 36.9996 6.01173 37.5255 6.54316C38.0514 7.0746 38.7199 7.43855 39.4483 7.59V13.8H27.5516C27.9404 12.9763 28.1149 12.0661 28.0587 11.1553C28.0025 10.2445 27.7173 9.36318 27.2303 8.59473C26.7432 7.82628 26.0703 7.19604 25.2751 6.76358C24.4799 6.33113 23.5888 6.11073 22.6859 6.12324C21.7829 6.13574 20.8981 6.38073 20.115 6.83505C19.3318 7.28937 18.6762 7.938 18.2102 8.71965C17.7441 9.5013 17.483 10.3901 17.4515 11.3022C17.42 12.2142 17.6192 13.1193 18.0301 13.9319C17.3409 14.1084 16.7146 14.4771 16.2227 14.996C15.7308 15.515 15.3932 16.1631 15.2483 16.8667ZM19.7499 13.8C19.2446 13.1417 18.9689 12.3331 18.9655 11.5C18.9655 10.4833 19.3651 9.50831 20.0765 8.78942C20.7878 8.07053 21.7526 7.66667 22.7586 7.66667C23.7646 7.66667 24.7294 8.07053 25.4408 8.78942C26.1521 9.50831 26.5517 10.4833 26.5517 11.5C26.5482 12.3332 26.2721 13.1418 25.7666 13.8H19.7499ZM42.4828 42.1667C42.4828 42.7767 42.243 43.3617 41.8162 43.793C41.3894 44.2243 40.8105 44.4667 40.2069 44.4667H18.9655C18.3619 44.4667 17.783 44.2243 17.3562 43.793C16.9294 43.3617 16.6897 42.7767 16.6897 42.1667V17.6333C16.6897 17.0233 16.9294 16.4383 17.3562 16.007C17.783 15.5757 18.3619 15.3333 18.9655 15.3333H40.2069C40.8105 15.3333 41.3894 15.5757 41.8162 16.007C42.243 16.4383 42.4828 17.0233 42.4828 17.6333V42.1667Z" fill="#F36327"/>
</svg>
