<svg width="51" height="43" viewBox="0 0 51 43" fill="none" xmlns="http://www.w3.org/2000/svg">
<path d="M0.84597 32.6187H50.154C50.3784 32.6187 50.5936 32.707 50.7522 32.8642C50.9109 33.0214 51 33.2346 51 33.457V42.0539C51 42.2762 50.9109 42.4894 50.7522 42.6466C50.5936 42.8039 50.3784 42.8922 50.154 42.8922H0.84597C0.621605 42.8922 0.406429 42.8039 0.24778 42.6466C0.0891304 42.4894 0 42.2762 0 42.0539V33.457C0 33.2346 0.0891304 33.0214 0.24778 32.8642C0.406429 32.707 0.621605 32.6187 0.84597 32.6187ZM1.69194 41.2155H7.03365V37.4268C7.03365 37.2045 7.12278 36.9912 7.28143 36.834C7.44008 36.6768 7.65526 36.5885 7.87962 36.5885C8.10399 36.5885 8.31916 36.6768 8.47781 36.834C8.63646 36.9912 8.72559 37.2045 8.72559 37.4268V41.2155H12.9061V38.8299C12.9061 38.6076 12.9953 38.3943 13.1539 38.2371C13.3126 38.0799 13.5277 37.9916 13.7521 37.9916C13.9765 37.9916 14.1917 38.0799 14.3503 38.2371C14.509 38.3943 14.5981 38.6076 14.5981 38.8299V41.2155H18.7806V37.4268C18.7806 37.2045 18.8697 36.9912 19.0283 36.834C19.187 36.6768 19.4022 36.5885 19.6265 36.5885C19.8509 36.5885 20.0661 36.6768 20.2247 36.834C20.3834 36.9912 20.4725 37.2045 20.4725 37.4268V41.2155H24.654V38.8299C24.654 38.6076 24.7432 38.3943 24.9018 38.2371C25.0605 38.0799 25.2756 37.9916 25.5 37.9916C25.7244 37.9916 25.9395 38.0799 26.0982 38.2371C26.2568 38.3943 26.346 38.6076 26.346 38.8299V41.2155H30.5275V37.4268C30.5275 37.2045 30.6166 36.9912 30.7753 36.834C30.9339 36.6768 31.1491 36.5885 31.3735 36.5885C31.5978 36.5885 31.813 36.6768 31.9717 36.834C32.1303 36.9912 32.2194 37.2045 32.2194 37.4268V41.2155H36.4019V38.8299C36.4019 38.6076 36.491 38.3943 36.6497 38.2371C36.8083 38.0799 37.0235 37.9916 37.2479 37.9916C37.4723 37.9916 37.6874 38.0799 37.8461 38.2371C38.0047 38.3943 38.0939 38.6076 38.0939 38.8299V41.2155H42.2744V37.4268C42.2744 37.2045 42.3635 36.9912 42.5222 36.834C42.6808 36.6768 42.896 36.5885 43.1204 36.5885C43.3447 36.5885 43.5599 36.6768 43.7186 36.834C43.8772 36.9912 43.9664 37.2045 43.9664 37.4268V41.2155H49.3081V34.2953H1.69194V41.2155Z" fill="#F46929"/>
<path d="M12.911 18.1518C11.8634 18.1517 10.8393 17.8437 9.96822 17.2669C9.09717 16.69 8.41829 15.8702 8.01741 14.911C7.61654 13.9519 7.51167 12.8964 7.71608 11.8782C7.92049 10.86 8.425 9.92468 9.1658 9.19058C9.9066 8.45647 10.8504 7.95653 11.878 7.75397C12.9055 7.5514 13.9705 7.65532 14.9384 8.05257C15.9064 8.44982 16.7337 9.12257 17.3158 9.98574C17.8979 10.8489 18.2086 11.8638 18.2087 12.9019C18.2072 14.2938 17.6486 15.6282 16.6554 16.6124C15.6622 17.5966 14.3156 18.1502 12.911 18.1518ZM12.911 9.32925C12.198 9.32934 11.501 9.53896 10.9082 9.93159C10.3153 10.3242 9.85332 10.8822 9.58052 11.5351C9.30772 12.1879 9.23639 12.9062 9.37555 13.5992C9.51472 14.2922 9.85813 14.9288 10.3624 15.4284C10.8666 15.928 11.509 16.2682 12.2083 16.406C12.9077 16.5438 13.6326 16.4731 14.2913 16.2026C14.9501 15.9322 15.5131 15.4743 15.9092 14.8868C16.3054 14.2993 16.5168 13.6085 16.5168 12.9019C16.5156 11.9547 16.1354 11.0465 15.4594 10.3768C14.7834 9.70698 13.8669 9.33026 12.911 9.32925Z" fill="#F46929"/>
<path d="M50.154 24.0876H29.4406V24.8579C29.4406 25.0802 29.3515 25.2934 29.1928 25.4506C29.0342 25.6079 28.819 25.6962 28.5946 25.6962H12.911C10.3574 25.6961 7.86129 24.9456 5.73815 23.5397C3.61502 22.1338 1.96026 20.1356 0.983131 17.7977C0.00600433 15.4599 -0.249603 12.8874 0.248623 10.4056C0.746849 7.92379 1.97654 5.64411 3.78219 3.85485C5.58784 2.06559 7.88836 0.847105 10.3928 0.353475C12.8973 -0.140156 15.4932 0.113242 17.8524 1.08162C20.2115 2.05 22.2279 3.68987 23.6466 5.79387C25.0652 7.89786 25.8224 10.3715 25.8224 12.9019V17.1313H28.5946C28.819 17.1313 29.0342 17.2196 29.1928 17.3768C29.3515 17.534 29.4406 17.7473 29.4406 17.9696V18.8232H49.3081V18.3969C49.3081 18.1746 49.3972 17.9613 49.5558 17.8041C49.7145 17.6469 49.9297 17.5586 50.154 17.5586C50.3784 17.5586 50.5936 17.6469 50.7522 17.8041C50.9109 17.9613 51 18.1746 51 18.3969V23.2492C51 23.4716 50.9109 23.6848 50.7522 23.842C50.5936 23.9992 50.3784 24.0876 50.154 24.0876ZM24.1305 12.9019C24.1304 10.7031 23.4723 8.5537 22.2395 6.72549C21.0067 4.89729 19.2546 3.47239 17.2046 2.63098C15.1546 1.78958 12.8989 1.56945 10.7226 1.99844C8.54638 2.42743 6.54739 3.48627 4.9784 5.04107C3.40942 6.59586 2.34092 8.57679 1.90802 10.7333C1.47512 12.8899 1.69725 15.1252 2.54633 17.1567C3.39541 19.1882 4.83331 20.9245 6.6782 22.1462C8.52309 23.3678 10.6921 24.0199 12.911 24.02H24.1305V12.9019ZM27.7491 18.8079H25.8224V24.0195H27.7487L27.7491 18.8079ZM29.4411 20.4999V22.4109H49.3081V20.4999H29.4411Z" fill="#F46929"/>
</svg>
