<svg width="45" height="45" viewBox="0 0 45 45" fill="none" xmlns="http://www.w3.org/2000/svg">
<rect opacity="0.2" x="0.5" y="0.5" width="44" height="44" stroke="white"/>
<path d="M26.5845 14H19.4153C16.9807 14 15 15.9808 15 18.4154V25.5846C15 28.0193 16.9807 30 19.4153 30H26.5845C29.0193 30 31 28.0192 31 25.5846V18.4154C31.0001 15.9808 29.0193 14 26.5845 14ZM29.5805 25.5846C29.5805 27.2365 28.2365 28.5804 26.5846 28.5804H19.4153C17.7635 28.5805 16.4196 27.2365 16.4196 25.5846V18.4154C16.4196 16.7636 17.7635 15.4196 19.4153 15.4196H26.5845C28.2364 15.4196 29.5804 16.7636 29.5804 18.4154V25.5846H29.5805Z" fill="white"/>
<path d="M23 17.8774C20.7267 17.8774 18.8772 19.7268 18.8772 22.0002C18.8772 24.2734 20.7267 26.1228 23 26.1228C25.2733 26.1228 27.1228 24.2734 27.1228 22.0002C27.1228 19.7268 25.2733 17.8774 23 17.8774ZM23 24.7031C21.5095 24.7031 20.2968 23.4906 20.2968 22.0001C20.2968 20.5095 21.5094 19.2969 23 19.2969C24.4906 19.2969 25.7032 20.5095 25.7032 22.0001C25.7032 23.4906 24.4905 24.7031 23 24.7031Z" fill="white"/>
<path d="M27.2957 16.6737C27.0222 16.6737 26.7535 16.7844 26.5604 16.9784C26.3662 17.1715 26.2547 17.4403 26.2547 17.7147C26.2547 17.9883 26.3663 18.257 26.5604 18.451C26.7534 18.6441 27.0222 18.7557 27.2957 18.7557C27.5702 18.7557 27.838 18.6441 28.032 18.451C28.226 18.257 28.3367 17.9882 28.3367 17.7147C28.3367 17.4403 28.226 17.1715 28.032 16.9784C27.8389 16.7844 27.5702 16.6737 27.2957 16.6737Z" fill="white"/>
</svg>
