<svg width="45" height="45" viewBox="0 0 45 45" fill="none" xmlns="http://www.w3.org/2000/svg">
<rect width="45" height="45" fill="#F36327"/>
<rect width="45" height="45" fill="url(#paint0_linear)" style="mix-blend-mode:overlay"/>
<path d="M30.9098 27.0311C30.8893 26.9854 30.8701 26.9474 30.8522 26.917C30.5573 26.3693 29.9937 25.6971 29.1617 24.9001L29.1441 24.8819L29.1353 24.8729L29.1264 24.8637H29.1175C28.7399 24.4926 28.5007 24.2431 28.4006 24.1153C28.2174 23.872 28.1763 23.6256 28.2765 23.376C28.3472 23.1874 28.613 22.7892 29.0731 22.1807C29.3151 21.8582 29.5068 21.5998 29.6484 21.4051C30.6693 20.0057 31.1119 19.1115 30.9761 18.7221L30.9234 18.6311C30.8879 18.5763 30.7965 18.5262 30.6491 18.4805C30.5014 18.4349 30.3127 18.4274 30.0825 18.4578L27.5334 18.4759C27.4921 18.4608 27.4331 18.4622 27.3563 18.4805C27.2796 18.4988 27.2412 18.508 27.2412 18.508L27.1968 18.5308L27.1616 18.5583C27.1321 18.5764 27.0997 18.6084 27.0642 18.654C27.029 18.6995 26.9995 18.7529 26.9759 18.8137C26.6984 19.5498 26.3829 20.2343 26.0287 20.8669C25.8104 21.2442 25.6099 21.5711 25.4267 21.848C25.2439 22.1247 25.0904 22.3286 24.9666 22.4593C24.8426 22.5901 24.7307 22.6949 24.6302 22.7741C24.5298 22.8533 24.4532 22.8868 24.4002 22.8745C24.347 22.8623 24.297 22.8501 24.2496 22.838C24.167 22.7832 24.1006 22.7087 24.0505 22.6144C24.0002 22.5201 23.9664 22.4014 23.9487 22.2585C23.9311 22.1154 23.9207 21.9923 23.9177 21.8889C23.9149 21.7855 23.9162 21.6394 23.9222 21.4508C23.9283 21.2621 23.9311 21.1345 23.9311 21.0675C23.9311 20.8363 23.9354 20.5854 23.9442 20.3146C23.9531 20.0439 23.9604 19.8294 23.9664 19.6714C23.9724 19.5132 23.9752 19.3458 23.9752 19.1694C23.9752 18.993 23.9648 18.8546 23.9442 18.7542C23.9239 18.6539 23.8927 18.5565 23.8515 18.4621C23.8101 18.3678 23.7496 18.2949 23.6701 18.2431C23.5904 18.1914 23.4914 18.1504 23.3736 18.1199C23.0608 18.0469 22.6625 18.0074 22.1786 18.0013C21.0811 17.9892 20.3759 18.0622 20.0631 18.2204C19.9392 18.2872 19.8271 18.3786 19.7268 18.4941C19.6206 18.628 19.6058 18.701 19.6825 18.713C20.0366 18.7677 20.2872 18.8986 20.4348 19.1054L20.4879 19.215C20.5293 19.2941 20.5706 19.4341 20.6119 19.6348C20.6532 19.8355 20.6798 20.0576 20.6915 20.3008C20.721 20.745 20.721 21.1252 20.6915 21.4415C20.662 21.758 20.6341 22.0043 20.6075 22.1807C20.5808 22.3572 20.541 22.5001 20.4879 22.6096C20.4348 22.7191 20.3994 22.786 20.3817 22.8103C20.364 22.8346 20.3492 22.8499 20.3375 22.8559C20.2608 22.8862 20.181 22.9017 20.0985 22.9017C20.0158 22.9017 19.9155 22.859 19.7975 22.7738C19.6796 22.6886 19.5572 22.5716 19.4303 22.4225C19.3034 22.2734 19.1603 22.065 19.0009 21.7974C18.8416 21.5297 18.6764 21.2134 18.5053 20.8484L18.3637 20.5836C18.2752 20.4133 18.1543 20.1654 18.0008 19.84C17.8473 19.5144 17.7116 19.1995 17.5937 18.8953C17.5465 18.7676 17.4757 18.6703 17.3813 18.6034L17.337 18.5759C17.3075 18.5516 17.2602 18.5258 17.1954 18.4984C17.1304 18.4709 17.0627 18.4512 16.9918 18.4391L14.5666 18.4572C14.3188 18.4572 14.1506 18.5151 14.0621 18.6307L14.0266 18.6854C14.0089 18.7159 14 18.7645 14 18.8315C14 18.8984 14.0177 18.9806 14.0531 19.0778C14.4072 19.9357 14.7922 20.7631 15.2082 21.56C15.6241 22.357 15.9856 22.999 16.2924 23.4854C16.5992 23.9722 16.9119 24.4316 17.2306 24.8634C17.5493 25.2954 17.7602 25.5722 17.8634 25.6938C17.9667 25.8156 18.0479 25.9067 18.1069 25.9676L18.3282 26.1865C18.4698 26.3326 18.6778 26.5075 18.9522 26.7112C19.2266 26.9151 19.5305 27.1159 19.8639 27.3137C20.1973 27.5113 20.5853 27.6725 21.0279 27.7972C21.4704 27.922 21.9012 27.9721 22.3201 27.948H23.338C23.5445 27.9296 23.7009 27.8626 23.8072 27.7471L23.8424 27.7014C23.8661 27.6651 23.8883 27.6087 23.9087 27.5328C23.9294 27.4567 23.9397 27.3729 23.9397 27.2818C23.9337 27.0203 23.953 26.7845 23.9971 26.5747C24.0413 26.3649 24.0915 26.2067 24.1478 26.1001C24.204 25.9937 24.2674 25.9039 24.338 25.8311C24.4087 25.7581 24.4592 25.7139 24.4887 25.6987C24.5181 25.6834 24.5416 25.673 24.5593 25.6668C24.7009 25.6181 24.8676 25.6652 25.0595 25.8083C25.2513 25.9513 25.4312 26.1278 25.5995 26.3376C25.7677 26.5476 25.9698 26.7832 26.2058 27.0448C26.4419 27.3064 26.6484 27.5009 26.8253 27.6289L27.0023 27.7384C27.1205 27.8114 27.2739 27.8784 27.4627 27.9392C27.6513 28 27.8164 28.0152 27.9583 27.9848L30.2241 27.9484C30.4482 27.9484 30.6226 27.9101 30.7463 27.8342C30.8702 27.7582 30.9439 27.6744 30.9676 27.5833C30.9913 27.492 30.9926 27.3885 30.9721 27.2728C30.9511 27.1574 30.9304 27.0767 30.9098 27.0311Z" fill="white"/>
<defs>
<linearGradient id="paint0_linear" x1="6.68731" y1="-99.5" x2="6.68731" y2="87.0779" gradientUnits="userSpaceOnUse">
<stop stop-color="white"/>
<stop offset="1" stop-color="white" stop-opacity="0"/>
</linearGradient>
</defs>
</svg>
