<svg width="45" height="45" viewBox="0 0 45 45" fill="none" xmlns="http://www.w3.org/2000/svg">
<rect opacity="0.2" x="0.5" y="0.5" width="44" height="44" stroke="white"/>
<g clip-path="url(#clip0)">
<path d="M28.731 25.47L26.8778 23.6165C26.5086 23.2489 25.8974 23.2601 25.5154 23.6422L24.5817 24.5756C24.5227 24.5431 24.4617 24.5092 24.3975 24.4731C23.8079 24.1465 23.0009 23.6987 22.1518 22.8489C21.3001 21.9973 20.8519 21.1891 20.5242 20.5992C20.4897 20.5367 20.4565 20.4764 20.4238 20.4192L21.0504 19.7935L21.3585 19.485C21.7411 19.1024 21.7516 18.4913 21.3834 18.1225L19.5301 16.2689C19.1619 15.9007 18.5503 15.9119 18.1678 16.2946L17.6455 16.8199L17.6597 16.834C17.4846 17.0575 17.3382 17.3152 17.2293 17.5932C17.1289 17.8577 17.0664 18.1102 17.0379 18.3632C16.7932 20.3918 17.7202 22.2459 20.2361 24.7618C23.7137 28.2392 26.5163 27.9765 26.6372 27.9637C26.9005 27.9322 27.1529 27.8693 27.4093 27.7697C27.6849 27.6621 27.9424 27.5159 28.1657 27.3412L28.1772 27.3513L28.7063 26.8332C29.0881 26.4506 29.0991 25.8393 28.731 25.47Z" fill="white"/>
</g>
<defs>
<clipPath id="clip0">
<rect width="12" height="12" fill="white" transform="translate(17 16)"/>
</clipPath>
</defs>
</svg>
