<svg width="45" height="45" viewBox="0 0 45 45" fill="none" xmlns="http://www.w3.org/2000/svg">
<rect opacity="0.2" x="0.5" y="0.5" width="44" height="44" stroke="white"/>
<path d="M25.6718 15.0035L23.5816 15C21.2333 15 20.4303 16.8224 20.4303 18.3458V20.3038H18.3287C18.1471 20.3038 18 20.4553 18 20.6421V22.6331C18 22.82 18.1472 22.9713 18.3287 22.9713H20.4303V30.6619C20.4303 30.8487 20.5774 31 20.759 31H22.7864C22.968 31 23.1151 30.8485 23.1151 30.6619V22.9713H25.5724C25.754 22.9713 25.9011 22.82 25.9011 22.6331L25.9021 20.6421C25.9021 20.5524 25.8674 20.4665 25.8058 20.403C25.7443 20.3395 25.6604 20.3038 25.5732 20.3038H23.1151V18.6323C23.1151 18.2008 23.2927 17.4765 24.2634 17.4765L25.6715 17.476C25.8529 17.476 26 17.3245 26 17.1379V15.3416C26 15.1551 25.8531 15.0038 25.6718 15.0035Z" fill="white"/>
</svg>
