<svg width="45" height="45" viewBox="0 0 45 45" fill="none" xmlns="http://www.w3.org/2000/svg">
<rect opacity="0.2" x="0.5" y="0.5" width="44" height="44" stroke="white"/>
<path d="M23 16C20.243 16 18 18.2745 18 21.0702C18 24.5398 22.4745 29.6334 22.665 29.8486C22.844 30.0507 23.1564 30.0503 23.335 29.8486C23.5255 29.6334 28 24.5398 28 21.0702C27.9999 18.2745 25.757 16 23 16ZM23 23.6212C21.6129 23.6212 20.4844 22.4769 20.4844 21.0702C20.4844 19.6636 21.6129 18.5193 23 18.5193C24.3871 18.5193 25.5156 19.6637 25.5156 21.0703C25.5156 22.4769 24.3871 23.6212 23 23.6212Z" fill="white"/>
</svg>
