<svg width="70" height="35" viewBox="0 0 70 35" fill="none" xmlns="http://www.w3.org/2000/svg">
<rect x="17.75" y="0.75" width="17.5" height="33.5" stroke="#202020" stroke-width="1.5"/>
<rect x="51.75" y="0.75" width="17.5" height="33.5" stroke="#202020" stroke-width="1.5"/>
<rect x="34.75" y="0.75" width="17.5" height="33.5" stroke="#202020" stroke-width="1.5"/>
<path d="M38 7L41 4M49.7071 28.7071L46.7071 31.7071M38 11L45 4M49.7071 24.7071L42.7071 31.7071M38 24L49 13M49.7071 20.7071L38.7071 31.7071M38 28L49 17M38 20L49 9M38 15.5L49 4.5" stroke="#202020"/>
<path d="M4 7L7 4M15.7071 28.7071L12.7071 31.7071M4 11L11 4M15.7071 24.7071L8.70711 31.7071M4 24L15 13M15.7071 20.7071L4.70711 31.7071M4 28L15 17M4 20L15 9M4 15.5L15 4.5" stroke="#202020"/>
<rect x="0.75" y="0.75" width="17.5" height="33.5" stroke="#202020" stroke-width="1.5"/>
<path fill-rule="evenodd" clip-rule="evenodd" d="M22.8877 11.2819C23.6843 15.9933 16.8562 19.4966 25.1637 23C23.3429 19.8591 25.3913 19.8591 25.1637 17.443C25.5051 17.8054 25.7327 18.1678 25.6189 18.651C26.5293 18.1678 27.0983 16.8389 27.2121 15.1477C28.5777 16.7181 27.2121 18.7718 28.1225 20.1007C28.1225 19.4966 28.1225 19.0134 28.3501 18.4094C29.2605 19.7383 29.4881 21.3087 28.8053 23C35.4058 17.8054 29.4881 15.6309 30.9675 9.83221C29.8295 10.3154 28.9191 11.2819 28.4639 12.9732C26.8707 11.0403 25.9603 8.62416 26.8707 5C21.8634 10.3154 25.7327 11.0403 24.4809 15.3893C24.3671 13.3356 23.9119 11.8859 22.8877 11.2819Z" fill="#202020"/>
</svg>
