<svg width="63" height="35" viewBox="0 0 63 35" fill="none" xmlns="http://www.w3.org/2000/svg">
<rect x="1.25012" y="0.75" width="60.5" height="20.5" stroke="#202020" stroke-width="1.5"/>
<path d="M4.73315 6.49993L7.03948 4.1936M27.2619 4.1936L12.514 17.8064M4.73315 9.57503L10.1146 4.1936M23.8324 4.1936L8.8954 17.8064M4.73315 12.6501L13.544 4.1936M20.403 4.1936L5.27676 17.8064M4.73315 15.7252L16.9735 4.1936M30.6913 4.1936L16.1327 17.8064M34.1208 4.1936L19.7513 17.8064M37.5502 4.1936L23.3699 17.8064M40.9797 4.1936L26.9886 17.8064M44.4092 4.1936L30.6072 17.8064M47.8386 4.1936L34.2258 17.8064M50.831 4.1936L37.2182 17.8064M54.1796 4.1936L40.5668 17.8064M57.6706 4.1936L44.0579 17.8064M47.1248 17.8064L59.3652 6.27476M50.5543 18.0316L59.3652 9.57503M53.9837 18.0316L59.3652 12.6501M57.0588 18.0316L59.3652 15.7252" stroke="#404144"/>
<path d="M4.73315 6.49993L7.03948 4.1936M27.2619 4.1936L12.514 17.8064M4.73315 9.57503L10.1146 4.1936M23.8324 4.1936L8.8954 17.8064M4.73315 12.6501L13.544 4.1936M20.403 4.1936L5.27676 17.8064M4.73315 15.7252L16.9735 4.1936M30.6913 4.1936L16.1327 17.8064M34.1208 4.1936L19.7513 17.8064M37.5502 4.1936L23.3699 17.8064M40.9797 4.1936L26.9886 17.8064M44.4092 4.1936L30.6072 17.8064M47.8386 4.1936L34.2258 17.8064M50.831 4.1936L37.2182 17.8064M54.1796 4.1936L40.5668 17.8064M57.6706 4.1936L44.0579 17.8064M47.1248 17.8064L59.3652 6.27476M50.5543 18.0316L59.3652 9.57503M53.9837 18.0316L59.3652 12.6501M57.0588 18.0316L59.3652 15.7252" stroke="url(#paint0_linear)" style="mix-blend-mode:overlay"/>
<path d="M30.25 21.6568V1.28279L52.75 13.9473V33.7456L30.25 21.6568Z" fill="white" fill-opacity="0.9" stroke="#202020" stroke-width="1.5"/>
<defs>
<linearGradient id="paint0_linear" x1="32.0492" y1="-17.0246" x2="32.0492" y2="21.5679" gradientUnits="userSpaceOnUse">
<stop stop-color="white"/>
<stop offset="1" stop-color="white" stop-opacity="0"/>
</linearGradient>
</defs>
</svg>
