<svg width="58" height="38" viewBox="0 0 58 38" fill="none" xmlns="http://www.w3.org/2000/svg">
<path d="M1 28.3992V3.24292C1 3.24292 10.2655 11.7486 30.1128 11.843C30.2236 11.8435 30.3347 11.8438 30.4462 11.8438C36.6486 11.8438 41.4959 11.0229 45.2335 9.88835C53.594 7.35044 56.4012 3.24292 56.4012 3.24292V28.3992C56.4012 28.3992 50.5231 37 30.4462 37C30.3347 37 30.2236 36.9998 30.1128 36.9992C23.6725 36.9686 18.3464 36.0523 14.0895 34.8283C5.22792 32.2804 1 28.3992 1 28.3992Z" fill="white" fill-opacity="0.5"/>
<path d="M14.0895 9.75776V35.0155M30.1128 11.7423V37M45.2335 9.75776V35.0155M1 3.24292V28.3992C1 28.3992 10.3692 37 30.4462 37C50.5231 37 56.4012 28.3992 56.4012 28.3992V3.24292C56.4012 3.24292 50.5231 11.8438 30.4462 11.8438C10.3692 11.8438 1 3.24292 1 3.24292Z" stroke="#202020" stroke-width="1.5"/>
</svg>
