<svg width="49" height="50" viewBox="0 0 49 50" fill="none" xmlns="http://www.w3.org/2000/svg">
<path d="M48.2097 13.1452H49V0.5H48.2097H44.2581H0V12.7342L30.15 36.8548H4.74194H0.790323H0V49.5H0.790323H4.74194H49V37.2658L18.85 13.1452H44.2581H48.2097ZM47.4194 2.08065V11.5645H44.2581C41.6429 11.5645 39.5161 9.43776 39.5161 6.82258C39.5161 4.2074 41.6429 2.08065 44.2581 2.08065H47.4194ZM1.58065 47.9194V38.4355H4.74194C7.35711 38.4355 9.48387 40.5622 9.48387 43.1774C9.48387 45.7926 7.35711 47.9194 4.74194 47.9194H1.58065ZM8.9101 47.9194C10.2276 46.76 11.0645 45.0663 11.0645 43.1774C11.0645 41.2885 10.2276 39.5949 8.9101 38.4355H12.6452V41.5968H14.2258V38.4355H15.8065V43.1774H17.3871V38.4355H18.9677V41.5968H20.5484V38.4355H22.129V43.1774H23.7097V38.4355H25.2903V41.5968H26.871V38.4355H28.4516V43.1774H30.0323V38.4355H31.6129V41.5968H33.1936V38.4355H34.6564H34.7742V43.1774H36.3548V38.4355H37.9355V41.5968H39.5161V38.4355H41.0968V43.1774H42.6774V38.4355H44.2581V41.5968H45.8387V38.4355H47.4194V47.9194H8.9101ZM45.9565 36.8548H32.6806L3.04353 13.1452H16.3202L45.9565 36.8548ZM16.5968 11.5645H14.3436H1.58065V2.08065H3.16129V4.38229H4.74194V2.08065H6.32258V6.82258H7.90323V2.08065H9.48387V5.24194H11.0645V2.08065H12.6452V6.82258H14.2258V2.08065H15.8065V5.24194H17.3871V2.08065H18.9677V6.82258H20.5484V2.08065H22.129V5.24194H23.7097V2.08065H25.2903V6.82258H26.871V2.08065H28.4516V5.24194H30.0323V2.08065H31.6129V6.82258H33.1936V2.08065H34.7742V5.24194H36.3548V2.08065H40.0899C38.7724 3.24005 37.9355 4.93371 37.9355 6.82258C37.9355 8.71145 38.7724 10.4051 40.0899 11.5645H16.5968Z" fill="#F36327"/>
<path d="M48.2097 13.1452H49V0.5H48.2097H44.2581H0V12.7342L30.15 36.8548H4.74194H0.790323H0V49.5H0.790323H4.74194H49V37.2658L18.85 13.1452H44.2581H48.2097ZM47.4194 2.08065V11.5645H44.2581C41.6429 11.5645 39.5161 9.43776 39.5161 6.82258C39.5161 4.2074 41.6429 2.08065 44.2581 2.08065H47.4194ZM1.58065 47.9194V38.4355H4.74194C7.35711 38.4355 9.48387 40.5622 9.48387 43.1774C9.48387 45.7926 7.35711 47.9194 4.74194 47.9194H1.58065ZM8.9101 47.9194C10.2276 46.76 11.0645 45.0663 11.0645 43.1774C11.0645 41.2885 10.2276 39.5949 8.9101 38.4355H12.6452V41.5968H14.2258V38.4355H15.8065V43.1774H17.3871V38.4355H18.9677V41.5968H20.5484V38.4355H22.129V43.1774H23.7097V38.4355H25.2903V41.5968H26.871V38.4355H28.4516V43.1774H30.0323V38.4355H31.6129V41.5968H33.1936V38.4355H34.6564H34.7742V43.1774H36.3548V38.4355H37.9355V41.5968H39.5161V38.4355H41.0968V43.1774H42.6774V38.4355H44.2581V41.5968H45.8387V38.4355H47.4194V47.9194H8.9101ZM45.9565 36.8548H32.6806L3.04353 13.1452H16.3202L45.9565 36.8548ZM16.5968 11.5645H14.3436H1.58065V2.08065H3.16129V4.38229H4.74194V2.08065H6.32258V6.82258H7.90323V2.08065H9.48387V5.24194H11.0645V2.08065H12.6452V6.82258H14.2258V2.08065H15.8065V5.24194H17.3871V2.08065H18.9677V6.82258H20.5484V2.08065H22.129V5.24194H23.7097V2.08065H25.2903V6.82258H26.871V2.08065H28.4516V5.24194H30.0323V2.08065H31.6129V6.82258H33.1936V2.08065H34.7742V5.24194H36.3548V2.08065H40.0899C38.7724 3.24005 37.9355 4.93371 37.9355 6.82258C37.9355 8.71145 38.7724 10.4051 40.0899 11.5645H16.5968Z" fill="url(#paint0_linear)" style="mix-blend-mode:overlay"/>
<defs>
<linearGradient id="paint0_linear" x1="7.28174" y1="-107.844" x2="7.28173" y2="95.3182" gradientUnits="userSpaceOnUse">
<stop stop-color="white"/>
<stop offset="1" stop-color="white" stop-opacity="0"/>
</linearGradient>
</defs>
</svg>
