<svg width="58" height="54" viewBox="0 0 58 54" fill="none" xmlns="http://www.w3.org/2000/svg">
<path d="M54.0785 10.7663H42.8309L39.2562 3.26142C39.1583 3.05577 38.9834 2.89799 38.7697 2.82254C38.5565 2.74614 38.3212 2.7592 38.1176 2.85863L33.6234 5.03225L28.4542 0.36361C28.2859 0.211329 28.0627 0.13536 27.8382 0.145415C27.6121 0.157961 27.4004 0.260399 27.2493 0.430297L18.0582 10.7663H4.65916C2.56886 10.7663 0.855558 12.4659 0.855217 14.5982H0.850952V50.7662C0.850952 52.4694 2.22658 53.8554 3.91702 53.8554H49.6531C51.3435 53.8554 52.7187 52.4694 52.7187 50.7662V49.3949H54.0785C55.7715 49.3949 57.1492 48.011 57.1492 46.3099V13.8513C57.1492 12.1501 55.7715 10.7663 54.0785 10.7663ZM20.3518 10.7663L27.9509 2.21737L31.9591 5.83705L19.2844 11.9671L20.3536 10.7662H20.3518V10.7663ZM38.0872 4.78054C38.8081 6.2939 37.3952 3.32777 43.7666 16.7043L13.4265 16.7101C13.6495 16.6022 36.7489 5.42834 38.0872 4.78054ZM4.65916 12.485H16.5299L15.2591 13.9141L9.47444 16.7118H4.65456C3.49558 16.7118 2.56093 15.7579 2.56093 14.5991C2.56093 13.4118 3.51093 12.485 4.65916 12.485ZM51.0128 30.129H41.0924C39.6814 30.129 38.5336 31.2855 38.5336 32.7071V37.8634C38.5336 39.285 39.6814 40.4415 41.0924 40.4415H51.0128V50.7662C51.0128 51.5219 50.4027 52.1367 49.6531 52.1367H3.91702C3.16694 52.1367 2.55683 51.5219 2.55683 50.7662V17.7935C3.16131 18.1976 3.95387 18.423 4.6247 18.4283C4.63648 18.4284 4.64739 18.4318 4.65925 18.4318C14.9794 18.4318 39.9594 18.4318 49.6519 18.4318C50.3629 18.4318 51.0129 19.0224 51.0129 19.801V30.129H51.0128ZM51.0124 31.8478V38.7228H41.0924C40.6143 38.7228 40.2394 38.3451 40.2394 37.8634V32.7071C40.2394 32.2334 40.6221 31.8478 41.0924 31.8478H51.0124ZM55.4433 46.3099C55.4433 47.0632 54.831 47.6762 54.0785 47.6762H52.7225V19.7981C52.7225 18.0306 51.2302 16.7118 49.6531 16.7118H45.6629L43.6496 12.485H54.0786C54.8311 12.485 55.4434 13.0981 55.4434 13.8512V46.3099H55.4433Z" fill="#F36327"/>
<path d="M54.0785 10.7663H42.8309L39.2562 3.26142C39.1583 3.05577 38.9834 2.89799 38.7697 2.82254C38.5565 2.74614 38.3212 2.7592 38.1176 2.85863L33.6234 5.03225L28.4542 0.36361C28.2859 0.211329 28.0627 0.13536 27.8382 0.145415C27.6121 0.157961 27.4004 0.260399 27.2493 0.430297L18.0582 10.7663H4.65916C2.56886 10.7663 0.855558 12.4659 0.855217 14.5982H0.850952V50.7662C0.850952 52.4694 2.22658 53.8554 3.91702 53.8554H49.6531C51.3435 53.8554 52.7187 52.4694 52.7187 50.7662V49.3949H54.0785C55.7715 49.3949 57.1492 48.011 57.1492 46.3099V13.8513C57.1492 12.1501 55.7715 10.7663 54.0785 10.7663ZM20.3518 10.7663L27.9509 2.21737L31.9591 5.83705L19.2844 11.9671L20.3536 10.7662H20.3518V10.7663ZM38.0872 4.78054C38.8081 6.2939 37.3952 3.32777 43.7666 16.7043L13.4265 16.7101C13.6495 16.6022 36.7489 5.42834 38.0872 4.78054ZM4.65916 12.485H16.5299L15.2591 13.9141L9.47444 16.7118H4.65456C3.49558 16.7118 2.56093 15.7579 2.56093 14.5991C2.56093 13.4118 3.51093 12.485 4.65916 12.485ZM51.0128 30.129H41.0924C39.6814 30.129 38.5336 31.2855 38.5336 32.7071V37.8634C38.5336 39.285 39.6814 40.4415 41.0924 40.4415H51.0128V50.7662C51.0128 51.5219 50.4027 52.1367 49.6531 52.1367H3.91702C3.16694 52.1367 2.55683 51.5219 2.55683 50.7662V17.7935C3.16131 18.1976 3.95387 18.423 4.6247 18.4283C4.63648 18.4284 4.64739 18.4318 4.65925 18.4318C14.9794 18.4318 39.9594 18.4318 49.6519 18.4318C50.3629 18.4318 51.0129 19.0224 51.0129 19.801V30.129H51.0128ZM51.0124 31.8478V38.7228H41.0924C40.6143 38.7228 40.2394 38.3451 40.2394 37.8634V32.7071C40.2394 32.2334 40.6221 31.8478 41.0924 31.8478H51.0124ZM55.4433 46.3099C55.4433 47.0632 54.831 47.6762 54.0785 47.6762H52.7225V19.7981C52.7225 18.0306 51.2302 16.7118 49.6531 16.7118H45.6629L43.6496 12.485H54.0786C54.8311 12.485 55.4434 13.0981 55.4434 13.8512V46.3099H55.4433Z" fill="url(#paint0_linear)" style="mix-blend-mode:overlay"/>
<path d="M18.763 40.3574H15.3313V43.1508H13.3747V40.3574H11.2543V38.7524H13.3747V36.4364H11.2543V34.8416H13.3747V27.4365H19.9012C21.4992 27.4365 22.766 27.8395 23.7016 28.6453C24.6372 29.4512 25.105 30.5415 25.105 31.9162C25.105 33.3586 24.6543 34.4726 23.7528 35.2581C22.8582 36.0369 21.5846 36.4297 19.9319 36.4364H15.3313V38.7524H18.763V40.3574ZM15.3313 34.8416H19.9012C20.9597 34.8416 22.084 34.5924 22.6371 34.098C23.1903 33.6037 23.4062 32.8642 23.4062 31.9162C23.4062 30.631 23.1499 30.4519 22.6371 29.931C22.1244 29.4102 20.9392 29.0482 19.9626 29.0415H15.3313V34.8416Z" fill="#F36327"/>
<path d="M18.763 40.3574H15.3313V43.1508H13.3747V40.3574H11.2543V38.7524H13.3747V36.4364H11.2543V34.8416H13.3747V27.4365H19.9012C21.4992 27.4365 22.766 27.8395 23.7016 28.6453C24.6372 29.4512 25.105 30.5415 25.105 31.9162C25.105 33.3586 24.6543 34.4726 23.7528 35.2581C22.8582 36.0369 21.5846 36.4297 19.9319 36.4364H15.3313V38.7524H18.763V40.3574ZM15.3313 34.8416H19.9012C20.9597 34.8416 22.084 34.5924 22.6371 34.098C23.1903 33.6037 23.4062 32.8642 23.4062 31.9162C23.4062 30.631 23.1499 30.4519 22.6371 29.931C22.1244 29.4102 20.9392 29.0482 19.9626 29.0415H15.3313V34.8416Z" fill="url(#paint1_linear)" style="mix-blend-mode:overlay"/>
<path d="M44.3658 35.2968V35.2738C44.3658 34.8028 43.9839 34.4209 43.5129 34.4209C43.0418 34.4209 42.6599 34.8028 42.6599 35.2738V35.2968C42.6599 35.7678 43.0418 36.1497 43.5129 36.1497C43.9839 36.1497 44.3658 35.7678 44.3658 35.2968Z" fill="#F36327"/>
<path d="M44.3658 35.2968V35.2738C44.3658 34.8028 43.9839 34.4209 43.5129 34.4209C43.0418 34.4209 42.6599 34.8028 42.6599 35.2738V35.2968C42.6599 35.7678 43.0418 36.1497 43.5129 36.1497C43.9839 36.1497 44.3658 35.7678 44.3658 35.2968Z" fill="url(#paint2_linear)" style="mix-blend-mode:overlay"/>
<defs>
<linearGradient id="paint0_linear" x1="9.21726" y1="-118.616" x2="9.21725" y2="104.079" gradientUnits="userSpaceOnUse">
<stop stop-color="white"/>
<stop offset="1" stop-color="white" stop-opacity="0"/>
</linearGradient>
<linearGradient id="paint1_linear" x1="13.3126" y1="-7.3095" x2="13.3126" y2="57.8447" gradientUnits="userSpaceOnUse">
<stop stop-color="white"/>
<stop offset="1" stop-color="white" stop-opacity="0"/>
</linearGradient>
<linearGradient id="paint2_linear" x1="42.9134" y1="30.5983" x2="42.9134" y2="37.7662" gradientUnits="userSpaceOnUse">
<stop stop-color="white"/>
<stop offset="1" stop-color="white" stop-opacity="0"/>
</linearGradient>
</defs>
</svg>
