<svg width="56" height="58" viewBox="0 0 56 58" fill="none" xmlns="http://www.w3.org/2000/svg">
<g clip-path="url(#clip0)">
<path d="M54.8082 54.375H25.9049C25.6654 54.375 25.4356 54.2795 25.2663 54.1096C25.0969 53.9396 25.0017 53.7091 25.0017 53.4688V9.96875C25.0017 9.7284 25.0969 9.49789 25.2663 9.32793C25.4356 9.15798 25.6654 9.0625 25.9049 9.0625H54.8082C55.0477 9.0625 55.2775 9.15798 55.4468 9.32793C55.6162 9.49789 55.7114 9.7284 55.7114 9.96875V53.4688C55.7114 53.7091 55.6162 53.9396 55.4468 54.1096C55.2775 54.2795 55.0477 54.375 54.8082 54.375ZM26.8082 52.5625H53.9049V10.875H26.8082V52.5625Z" fill="#F36327"/>
<path d="M54.8082 54.375H25.9049C25.6654 54.375 25.4356 54.2795 25.2663 54.1096C25.0969 53.9396 25.0017 53.7091 25.0017 53.4688V9.96875C25.0017 9.7284 25.0969 9.49789 25.2663 9.32793C25.4356 9.15798 25.6654 9.0625 25.9049 9.0625H54.8082C55.0477 9.0625 55.2775 9.15798 55.4468 9.32793C55.6162 9.49789 55.7114 9.7284 55.7114 9.96875V53.4688C55.7114 53.7091 55.6162 53.9396 55.4468 54.1096C55.2775 54.2795 55.0477 54.375 54.8082 54.375ZM26.8082 52.5625H53.9049V10.875H26.8082V52.5625Z" fill="url(#paint0_linear)" style="mix-blend-mode:overlay"/>
<path d="M54.8082 39.875H25.9049C25.6654 39.875 25.4356 39.7795 25.2663 39.6096C25.0969 39.4396 25.0017 39.2091 25.0017 38.9688C25.0017 38.7284 25.0969 38.4979 25.2663 38.3279C25.4356 38.158 25.6654 38.0625 25.9049 38.0625H54.8082C55.0477 38.0625 55.2775 38.158 55.4468 38.3279C55.6162 38.4979 55.7114 38.7284 55.7114 38.9688C55.7114 39.2091 55.6162 39.4396 55.4468 39.6096C55.2775 39.7795 55.0477 39.875 54.8082 39.875Z" fill="#F36327"/>
<path d="M54.8082 39.875H25.9049C25.6654 39.875 25.4356 39.7795 25.2663 39.6096C25.0969 39.4396 25.0017 39.2091 25.0017 38.9688C25.0017 38.7284 25.0969 38.4979 25.2663 38.3279C25.4356 38.158 25.6654 38.0625 25.9049 38.0625H54.8082C55.0477 38.0625 55.2775 38.158 55.4468 38.3279C55.6162 38.4979 55.7114 38.7284 55.7114 38.9688C55.7114 39.2091 55.6162 39.4396 55.4468 39.6096C55.2775 39.7795 55.0477 39.875 54.8082 39.875Z" fill="url(#paint1_linear)" style="mix-blend-mode:overlay"/>
<path d="M40.3563 54.375C40.1168 54.375 39.8871 54.2795 39.7177 54.1096C39.5483 53.9396 39.4531 53.7091 39.4531 53.4688V24.4688C39.4531 24.2284 39.5483 23.9979 39.7177 23.8279C39.8871 23.658 40.1168 23.5625 40.3563 23.5625C40.5959 23.5625 40.8256 23.658 40.995 23.8279C41.1644 23.9979 41.2596 24.2284 41.2596 24.4688V53.4688C41.2596 53.7091 41.1644 53.9396 40.995 54.1096C40.8256 54.2795 40.5959 54.375 40.3563 54.375Z" fill="#F36327"/>
<path d="M40.3563 54.375C40.1168 54.375 39.8871 54.2795 39.7177 54.1096C39.5483 53.9396 39.4531 53.7091 39.4531 53.4688V24.4688C39.4531 24.2284 39.5483 23.9979 39.7177 23.8279C39.8871 23.658 40.1168 23.5625 40.3563 23.5625C40.5959 23.5625 40.8256 23.658 40.995 23.8279C41.1644 23.9979 41.2596 24.2284 41.2596 24.4688V53.4688C41.2596 53.7091 41.1644 53.9396 40.995 54.1096C40.8256 54.2795 40.5959 54.375 40.3563 54.375Z" fill="url(#paint2_linear)" style="mix-blend-mode:overlay"/>
<path d="M54.808 54.375C54.5685 54.375 54.3387 54.2795 54.1693 54.1096C53.9999 53.9396 53.9048 53.7091 53.9048 53.4688V24.4688C53.9048 24.2284 53.9999 23.9979 54.1693 23.8279C54.3387 23.658 54.5685 23.5625 54.808 23.5625C55.0476 23.5625 55.2773 23.658 55.4467 23.8279C55.6161 23.9979 55.7112 24.2284 55.7112 24.4688V53.4688C55.7112 53.7091 55.6161 53.9396 55.4467 54.1096C55.2773 54.2795 55.0476 54.375 54.808 54.375Z" fill="#F36327"/>
<path d="M54.808 54.375C54.5685 54.375 54.3387 54.2795 54.1693 54.1096C53.9999 53.9396 53.9048 53.7091 53.9048 53.4688V24.4688C53.9048 24.2284 53.9999 23.9979 54.1693 23.8279C54.3387 23.658 54.5685 23.5625 54.808 23.5625C55.0476 23.5625 55.2773 23.658 55.4467 23.8279C55.6161 23.9979 55.7112 24.2284 55.7112 24.4688V53.4688C55.7112 53.7091 55.6161 53.9396 55.4467 54.1096C55.2773 54.2795 55.0476 54.375 54.808 54.375Z" fill="url(#paint3_linear)" style="mix-blend-mode:overlay"/>
<path d="M54.8082 25.375H25.9049C25.6654 25.375 25.4356 25.2795 25.2663 25.1096C25.0969 24.9396 25.0017 24.7091 25.0017 24.4688C25.0017 24.2284 25.0969 23.9979 25.2663 23.8279C25.4356 23.658 25.6654 23.5625 25.9049 23.5625H54.8082C55.0477 23.5625 55.2775 23.658 55.4468 23.8279C55.6162 23.9979 55.7114 24.2284 55.7114 24.4688C55.7114 24.7091 55.6162 24.9396 55.4468 25.1096C55.2775 25.2795 55.0477 25.375 54.8082 25.375Z" fill="#F36327"/>
<path d="M54.8082 25.375H25.9049C25.6654 25.375 25.4356 25.2795 25.2663 25.1096C25.0969 24.9396 25.0017 24.7091 25.0017 24.4688C25.0017 24.2284 25.0969 23.9979 25.2663 23.8279C25.4356 23.658 25.6654 23.5625 25.9049 23.5625H54.8082C55.0477 23.5625 55.2775 23.658 55.4468 23.8279C55.6162 23.9979 55.7114 24.2284 55.7114 24.4688C55.7114 24.7091 55.6162 24.9396 55.4468 25.1096C55.2775 25.2795 55.0477 25.375 54.8082 25.375Z" fill="url(#paint4_linear)" style="mix-blend-mode:overlay"/>
<path d="M36.5538 32.7473H29.328C29.0885 32.7473 28.8587 32.6518 28.6894 32.4819C28.52 32.3119 28.4248 32.0814 28.4248 31.8411C28.4248 31.6007 28.52 31.3702 28.6894 31.2003C28.8587 31.0303 29.0885 30.9348 29.328 30.9348H36.5538C36.7934 30.9348 37.0231 31.0303 37.1925 31.2003C37.3619 31.3702 37.4571 31.6007 37.4571 31.8411C37.4571 32.0814 37.3619 32.3119 37.1925 32.4819C37.0231 32.6518 36.7934 32.7473 36.5538 32.7473Z" fill="#F36327"/>
<path d="M36.5538 32.7473H29.328C29.0885 32.7473 28.8587 32.6518 28.6894 32.4819C28.52 32.3119 28.4248 32.0814 28.4248 31.8411C28.4248 31.6007 28.52 31.3702 28.6894 31.2003C28.8587 31.0303 29.0885 30.9348 29.328 30.9348H36.5538C36.7934 30.9348 37.0231 31.0303 37.1925 31.2003C37.3619 31.3702 37.4571 31.6007 37.4571 31.8411C37.4571 32.0814 37.3619 32.3119 37.1925 32.4819C37.0231 32.6518 36.7934 32.7473 36.5538 32.7473Z" fill="url(#paint5_linear)" style="mix-blend-mode:overlay"/>
<path d="M32.9408 36.3723C32.7013 36.3723 32.4715 36.2768 32.3021 36.1069C32.1328 35.9369 32.0376 35.7064 32.0376 35.4661V28.2161C32.0376 27.9757 32.1328 27.7452 32.3021 27.5752C32.4715 27.4053 32.7013 27.3098 32.9408 27.3098C33.1804 27.3098 33.4101 27.4053 33.5795 27.5752C33.7489 27.7452 33.8441 27.9757 33.8441 28.2161V35.4661C33.8441 35.7064 33.7489 35.9369 33.5795 36.1069C33.4101 36.2768 33.1804 36.3723 32.9408 36.3723Z" fill="#F36327"/>
<path d="M32.9408 36.3723C32.7013 36.3723 32.4715 36.2768 32.3021 36.1069C32.1328 35.9369 32.0376 35.7064 32.0376 35.4661V28.2161C32.0376 27.9757 32.1328 27.7452 32.3021 27.5752C32.4715 27.4053 32.7013 27.3098 32.9408 27.3098C33.1804 27.3098 33.4101 27.4053 33.5795 27.5752C33.7489 27.7452 33.8441 27.9757 33.8441 28.2161V35.4661C33.8441 35.7064 33.7489 35.9369 33.5795 36.1069C33.4101 36.2768 33.1804 36.3723 32.9408 36.3723Z" fill="url(#paint6_linear)" style="mix-blend-mode:overlay"/>
<path d="M51.1952 32.7473H43.9694C43.7298 32.7473 43.5001 32.6518 43.3307 32.4819C43.1613 32.3119 43.0662 32.0814 43.0662 31.8411C43.0662 31.6007 43.1613 31.3702 43.3307 31.2003C43.5001 31.0303 43.7298 30.9348 43.9694 30.9348H51.1952C51.4347 30.9348 51.6645 31.0303 51.8339 31.2003C52.0033 31.3702 52.0984 31.6007 52.0984 31.8411C52.0984 32.0814 52.0033 32.3119 51.8339 32.4819C51.6645 32.6518 51.4347 32.7473 51.1952 32.7473Z" fill="#F36327"/>
<path d="M51.1952 32.7473H43.9694C43.7298 32.7473 43.5001 32.6518 43.3307 32.4819C43.1613 32.3119 43.0662 32.0814 43.0662 31.8411C43.0662 31.6007 43.1613 31.3702 43.3307 31.2003C43.5001 31.0303 43.7298 30.9348 43.9694 30.9348H51.1952C51.4347 30.9348 51.6645 31.0303 51.8339 31.2003C52.0033 31.3702 52.0984 31.6007 52.0984 31.8411C52.0984 32.0814 52.0033 32.3119 51.8339 32.4819C51.6645 32.6518 51.4347 32.7473 51.1952 32.7473Z" fill="url(#paint7_linear)" style="mix-blend-mode:overlay"/>
<path d="M35.4971 49.581C35.258 49.58 35.029 49.4838 34.8604 49.3136L29.7481 44.1888C29.5786 44.0187 29.4834 43.7881 29.4834 43.5476C29.4834 43.3071 29.5786 43.0765 29.7481 42.9065C29.9176 42.7364 30.1474 42.6409 30.3871 42.6409C30.6268 42.6409 30.8567 42.7364 31.0262 42.9065L36.1294 48.0313C36.2549 48.158 36.3404 48.3192 36.3749 48.4945C36.4094 48.6697 36.3916 48.8514 36.3235 49.0165C36.2555 49.1816 36.1403 49.3229 35.9924 49.4225C35.8446 49.5221 35.6707 49.5757 35.4926 49.5765L35.4971 49.581Z" fill="#F36327"/>
<path d="M35.4971 49.581C35.258 49.58 35.029 49.4838 34.8604 49.3136L29.7481 44.1888C29.5786 44.0187 29.4834 43.7881 29.4834 43.5476C29.4834 43.3071 29.5786 43.0765 29.7481 42.9065C29.9176 42.7364 30.1474 42.6409 30.3871 42.6409C30.6268 42.6409 30.8567 42.7364 31.0262 42.9065L36.1294 48.0313C36.2549 48.158 36.3404 48.3192 36.3749 48.4945C36.4094 48.6697 36.3916 48.8514 36.3235 49.0165C36.2555 49.1816 36.1403 49.3229 35.9924 49.4225C35.8446 49.5221 35.6707 49.5757 35.4926 49.5765L35.4971 49.581Z" fill="url(#paint8_linear)" style="mix-blend-mode:overlay"/>
<path d="M30.3842 49.581C30.2052 49.5811 30.0301 49.5279 29.8813 49.4281C29.7325 49.3282 29.6166 49.1862 29.5484 49.0202C29.4802 48.8541 29.4627 48.6715 29.4981 48.4954C29.5335 48.3193 29.6203 48.1578 29.7474 48.0313L34.8551 42.9065C35.0272 42.7506 35.2525 42.667 35.4843 42.6732C35.716 42.6793 35.9366 42.7746 36.1003 42.9394C36.2639 43.1042 36.3581 43.3258 36.3634 43.5584C36.3687 43.791 36.2847 44.0167 36.1287 44.1888L31.0255 49.3137C30.9414 49.3985 30.8415 49.4658 30.7314 49.5116C30.6214 49.5575 30.5034 49.5811 30.3842 49.581Z" fill="#F36327"/>
<path d="M30.3842 49.581C30.2052 49.5811 30.0301 49.5279 29.8813 49.4281C29.7325 49.3282 29.6166 49.1862 29.5484 49.0202C29.4802 48.8541 29.4627 48.6715 29.4981 48.4954C29.5335 48.3193 29.6203 48.1578 29.7474 48.0313L34.8551 42.9065C35.0272 42.7506 35.2525 42.667 35.4843 42.6732C35.716 42.6793 35.9366 42.7746 36.1003 42.9394C36.2639 43.1042 36.3581 43.3258 36.3634 43.5584C36.3687 43.791 36.2847 44.0167 36.1287 44.1888L31.0255 49.3137C30.9414 49.3985 30.8415 49.4658 30.7314 49.5116C30.6214 49.5575 30.5034 49.5811 30.3842 49.581Z" fill="url(#paint9_linear)" style="mix-blend-mode:overlay"/>
<path d="M51.4572 47.0164H44.2314C43.9918 47.0164 43.7621 46.9209 43.5927 46.7509C43.4233 46.581 43.3281 46.3505 43.3281 46.1101C43.3281 45.8698 43.4233 45.6392 43.5927 45.4693C43.7621 45.2993 43.9918 45.2039 44.2314 45.2039H51.4572C51.6967 45.2039 51.9264 45.2993 52.0958 45.4693C52.2652 45.6392 52.3604 45.8698 52.3604 46.1101C52.3604 46.3505 52.2652 46.581 52.0958 46.7509C51.9264 46.9209 51.6967 47.0164 51.4572 47.0164Z" fill="#F36327"/>
<path d="M51.4572 47.0164H44.2314C43.9918 47.0164 43.7621 46.9209 43.5927 46.7509C43.4233 46.581 43.3281 46.3505 43.3281 46.1101C43.3281 45.8698 43.4233 45.6392 43.5927 45.4693C43.7621 45.2993 43.9918 45.2039 44.2314 45.2039H51.4572C51.6967 45.2039 51.9264 45.2993 52.0958 45.4693C52.2652 45.6392 52.3604 45.8698 52.3604 46.1101C52.3604 46.3505 52.2652 46.581 52.0958 46.7509C51.9264 46.9209 51.6967 47.0164 51.4572 47.0164Z" fill="url(#paint10_linear)" style="mix-blend-mode:overlay"/>
<path d="M47.8443 41.905C47.6433 41.905 47.4468 41.9648 47.2797 42.0768C47.1126 42.1889 46.9824 42.3481 46.9055 42.5344C46.8286 42.7207 46.8084 42.9257 46.8476 43.1235C46.8869 43.3212 46.9836 43.5029 47.1257 43.6455C47.2678 43.7881 47.4489 43.8852 47.646 43.9245C47.8431 43.9638 48.0474 43.9437 48.2331 43.8665C48.4188 43.7893 48.5775 43.6586 48.6891 43.491C48.8008 43.3233 48.8604 43.1262 48.8604 42.9246C48.8604 42.6542 48.7533 42.3948 48.5628 42.2036C48.3722 42.0124 48.1137 41.905 47.8443 41.905Z" fill="#F36327"/>
<path d="M47.8443 41.905C47.6433 41.905 47.4468 41.9648 47.2797 42.0768C47.1126 42.1889 46.9824 42.3481 46.9055 42.5344C46.8286 42.7207 46.8084 42.9257 46.8476 43.1235C46.8869 43.3212 46.9836 43.5029 47.1257 43.6455C47.2678 43.7881 47.4489 43.8852 47.646 43.9245C47.8431 43.9638 48.0474 43.9437 48.2331 43.8665C48.4188 43.7893 48.5775 43.6586 48.6891 43.491C48.8008 43.3233 48.8604 43.1262 48.8604 42.9246C48.8604 42.6542 48.7533 42.3948 48.5628 42.2036C48.3722 42.0124 48.1137 41.905 47.8443 41.905Z" fill="url(#paint11_linear)" style="mix-blend-mode:overlay"/>
<path d="M47.8443 48.2759C47.6433 48.2759 47.4468 48.3357 47.2797 48.4477C47.1126 48.5597 46.9824 48.719 46.9055 48.9053C46.8286 49.0915 46.8084 49.2965 46.8476 49.4943C46.8869 49.6921 46.9836 49.8737 47.1257 50.0163C47.2678 50.1589 47.4489 50.256 47.646 50.2954C47.8431 50.3347 48.0474 50.3145 48.2331 50.2373C48.4188 50.1602 48.5775 50.0295 48.6891 49.8618C48.8008 49.6942 48.8604 49.4971 48.8604 49.2954C48.8604 49.025 48.7533 48.7657 48.5628 48.5745C48.3722 48.3833 48.1137 48.2759 47.8443 48.2759Z" fill="#F36327"/>
<path d="M47.8443 48.2759C47.6433 48.2759 47.4468 48.3357 47.2797 48.4477C47.1126 48.5597 46.9824 48.719 46.9055 48.9053C46.8286 49.0915 46.8084 49.2965 46.8476 49.4943C46.8869 49.6921 46.9836 49.8737 47.1257 50.0163C47.2678 50.1589 47.4489 50.256 47.646 50.2954C47.8431 50.3347 48.0474 50.3145 48.2331 50.2373C48.4188 50.1602 48.5775 50.0295 48.6891 49.8618C48.8008 49.6942 48.8604 49.4971 48.8604 49.2954C48.8604 49.025 48.7533 48.7657 48.5628 48.5745C48.3722 48.3833 48.1137 48.2759 47.8443 48.2759Z" fill="url(#paint12_linear)" style="mix-blend-mode:overlay"/>
<path d="M40.3559 58.0001H1.19204C0.952494 58.0001 0.722755 57.9046 0.553367 57.7347C0.383979 57.5647 0.288818 57.3342 0.288818 57.0938V13.032C0.288818 12.7916 0.383979 12.5611 0.553367 12.3912C0.722755 12.2212 0.952494 12.1257 1.19204 12.1257C1.43159 12.1257 1.66133 12.2212 1.83072 12.3912C2.00011 12.5611 2.09527 12.7916 2.09527 13.032V56.1876H40.3559C40.5955 56.1876 40.8252 56.2831 40.9946 56.453C41.164 56.623 41.2591 56.8535 41.2591 57.0938C41.2591 57.3342 41.164 57.5647 40.9946 57.7347C40.8252 57.9046 40.5955 58.0001 40.3559 58.0001Z" fill="#F36327"/>
<path d="M40.3559 58.0001H1.19204C0.952494 58.0001 0.722755 57.9046 0.553367 57.7347C0.383979 57.5647 0.288818 57.3342 0.288818 57.0938V13.032C0.288818 12.7916 0.383979 12.5611 0.553367 12.3912C0.722755 12.2212 0.952494 12.1257 1.19204 12.1257C1.43159 12.1257 1.66133 12.2212 1.83072 12.3912C2.00011 12.5611 2.09527 12.7916 2.09527 13.032V56.1876H40.3559C40.5955 56.1876 40.8252 56.2831 40.9946 56.453C41.164 56.623 41.2591 56.8535 41.2591 57.0938C41.2591 57.3342 41.164 57.5647 40.9946 57.7347C40.8252 57.9046 40.5955 58.0001 40.3559 58.0001Z" fill="url(#paint13_linear)" style="mix-blend-mode:overlay"/>
<path d="M40.3564 7.87531C40.1169 7.87531 39.8872 7.77983 39.7178 7.60988C39.5484 7.43992 39.4532 7.20941 39.4532 6.96906V1.8125H13.2597C13.0201 1.8125 12.7904 1.71702 12.621 1.54707C12.4516 1.37711 12.3564 1.1466 12.3564 0.90625C12.3564 0.665898 12.4516 0.435389 12.621 0.265435C12.7904 0.0954797 13.0201 0 13.2597 0L40.3564 0C40.596 0 40.8257 0.0954797 40.9951 0.265435C41.1645 0.435389 41.2597 0.665898 41.2597 0.90625V6.96906C41.2597 7.20941 41.1645 7.43992 40.9951 7.60988C40.8257 7.77983 40.596 7.87531 40.3564 7.87531Z" fill="#F36327"/>
<path d="M40.3564 7.87531C40.1169 7.87531 39.8872 7.77983 39.7178 7.60988C39.5484 7.43992 39.4532 7.20941 39.4532 6.96906V1.8125H13.2597C13.0201 1.8125 12.7904 1.71702 12.621 1.54707C12.4516 1.37711 12.3564 1.1466 12.3564 0.90625C12.3564 0.665898 12.4516 0.435389 12.621 0.265435C12.7904 0.0954797 13.0201 0 13.2597 0L40.3564 0C40.596 0 40.8257 0.0954797 40.9951 0.265435C41.1645 0.435389 41.2597 0.665898 41.2597 0.90625V6.96906C41.2597 7.20941 41.1645 7.43992 40.9951 7.60988C40.8257 7.77983 40.596 7.87531 40.3564 7.87531Z" fill="url(#paint14_linear)" style="mix-blend-mode:overlay"/>
<path d="M13.2773 13.9382H1.19216C1.01407 13.9374 0.840176 13.8839 0.692338 13.7842C0.5445 13.6846 0.429316 13.5434 0.361266 13.3782C0.293215 13.2131 0.275335 13.0315 0.309874 12.8562C0.344413 12.6809 0.429829 12.5197 0.555384 12.393L12.6451 0.267396C12.7716 0.14295 12.9318 0.0585877 13.1057 0.0248104C13.2797 -0.00896688 13.4597 0.00933266 13.6234 0.0774311C13.787 0.14553 13.9271 0.260419 14.0262 0.407799C14.1253 0.555179 14.1789 0.72854 14.1805 0.906302V13.0319C14.1805 13.2723 14.0854 13.5028 13.916 13.6727C13.7466 13.8427 13.5169 13.9382 13.2773 13.9382ZM3.37345 12.1257H12.3741V3.0949L3.37345 12.1257Z" fill="#F36327"/>
<path d="M13.2773 13.9382H1.19216C1.01407 13.9374 0.840176 13.8839 0.692338 13.7842C0.5445 13.6846 0.429316 13.5434 0.361266 13.3782C0.293215 13.2131 0.275335 13.0315 0.309874 12.8562C0.344413 12.6809 0.429829 12.5197 0.555384 12.393L12.6451 0.267396C12.7716 0.14295 12.9318 0.0585877 13.1057 0.0248104C13.2797 -0.00896688 13.4597 0.00933266 13.6234 0.0774311C13.787 0.14553 13.9271 0.260419 14.0262 0.407799C14.1253 0.555179 14.1789 0.72854 14.1805 0.906302V13.0319C14.1805 13.2723 14.0854 13.5028 13.916 13.6727C13.7466 13.8427 13.5169 13.9382 13.2773 13.9382ZM3.37345 12.1257H12.3741V3.0949L3.37345 12.1257Z" fill="url(#paint15_linear)" style="mix-blend-mode:overlay"/>
<path d="M22.129 21.75H7.79483C7.55528 21.75 7.32554 21.6545 7.15615 21.4846C6.98676 21.3146 6.8916 21.0841 6.8916 20.8438C6.8916 20.6034 6.98676 20.3729 7.15615 20.2029C7.32554 20.033 7.55528 19.9375 7.79483 19.9375H22.129C22.3686 19.9375 22.5983 20.033 22.7677 20.2029C22.9371 20.3729 23.0322 20.6034 23.0322 20.8438C23.0322 21.0841 22.9371 21.3146 22.7677 21.4846C22.5983 21.6545 22.3686 21.75 22.129 21.75Z" fill="#F36327"/>
<path d="M22.129 21.75H7.79483C7.55528 21.75 7.32554 21.6545 7.15615 21.4846C6.98676 21.3146 6.8916 21.0841 6.8916 20.8438C6.8916 20.6034 6.98676 20.3729 7.15615 20.2029C7.32554 20.033 7.55528 19.9375 7.79483 19.9375H22.129C22.3686 19.9375 22.5983 20.033 22.7677 20.2029C22.9371 20.3729 23.0322 20.6034 23.0322 20.8438C23.0322 21.0841 22.9371 21.3146 22.7677 21.4846C22.5983 21.6545 22.3686 21.75 22.129 21.75Z" fill="url(#paint16_linear)" style="mix-blend-mode:overlay"/>
<path d="M22.129 27.8672H7.79483C7.55528 27.8672 7.32554 27.7717 7.15615 27.6018C6.98676 27.4318 6.8916 27.2013 6.8916 26.9609C6.8916 26.7206 6.98676 26.4901 7.15615 26.3201C7.32554 26.1502 7.55528 26.0547 7.79483 26.0547H22.129C22.3686 26.0547 22.5983 26.1502 22.7677 26.3201C22.9371 26.4901 23.0322 26.7206 23.0322 26.9609C23.0322 27.2013 22.9371 27.4318 22.7677 27.6018C22.5983 27.7717 22.3686 27.8672 22.129 27.8672Z" fill="#F36327"/>
<path d="M22.129 27.8672H7.79483C7.55528 27.8672 7.32554 27.7717 7.15615 27.6018C6.98676 27.4318 6.8916 27.2013 6.8916 26.9609C6.8916 26.7206 6.98676 26.4901 7.15615 26.3201C7.32554 26.1502 7.55528 26.0547 7.79483 26.0547H22.129C22.3686 26.0547 22.5983 26.1502 22.7677 26.3201C22.9371 26.4901 23.0322 26.7206 23.0322 26.9609C23.0322 27.2013 22.9371 27.4318 22.7677 27.6018C22.5983 27.7717 22.3686 27.8672 22.129 27.8672Z" fill="url(#paint17_linear)" style="mix-blend-mode:overlay"/>
<path d="M16.1451 33.9844H7.79483C7.55528 33.9844 7.32554 33.8889 7.15615 33.7189C6.98676 33.549 6.8916 33.3185 6.8916 33.0781C6.8916 32.8378 6.98676 32.6073 7.15615 32.4373C7.32554 32.2674 7.55528 32.1719 7.79483 32.1719H16.1451C16.3847 32.1719 16.6144 32.2674 16.7838 32.4373C16.9532 32.6073 17.0484 32.8378 17.0484 33.0781C17.0484 33.3185 16.9532 33.549 16.7838 33.7189C16.6144 33.8889 16.3847 33.9844 16.1451 33.9844Z" fill="#F36327"/>
<path d="M16.1451 33.9844H7.79483C7.55528 33.9844 7.32554 33.8889 7.15615 33.7189C6.98676 33.549 6.8916 33.3185 6.8916 33.0781C6.8916 32.8378 6.98676 32.6073 7.15615 32.4373C7.32554 32.2674 7.55528 32.1719 7.79483 32.1719H16.1451C16.3847 32.1719 16.6144 32.2674 16.7838 32.4373C16.9532 32.6073 17.0484 32.8378 17.0484 33.0781C17.0484 33.3185 16.9532 33.549 16.7838 33.7189C16.6144 33.8889 16.3847 33.9844 16.1451 33.9844Z" fill="url(#paint18_linear)" style="mix-blend-mode:overlay"/>
</g>
<defs>
<linearGradient id="paint0_linear" x1="29.5654" y1="-91.1285" x2="29.5654" y2="96.7451" gradientUnits="userSpaceOnUse">
<stop stop-color="white"/>
<stop offset="1" stop-color="white" stop-opacity="0"/>
</linearGradient>
<linearGradient id="paint1_linear" x1="29.5654" y1="34.0549" x2="29.5654" y2="41.5698" gradientUnits="userSpaceOnUse">
<stop stop-color="white"/>
<stop offset="1" stop-color="white" stop-opacity="0"/>
</linearGradient>
<linearGradient id="paint2_linear" x1="39.7216" y1="-44.5674" x2="39.7215" y2="83.1867" gradientUnits="userSpaceOnUse">
<stop stop-color="white"/>
<stop offset="1" stop-color="white" stop-opacity="0"/>
</linearGradient>
<linearGradient id="paint3_linear" x1="54.1732" y1="-44.5674" x2="54.1732" y2="83.1867" gradientUnits="userSpaceOnUse">
<stop stop-color="white"/>
<stop offset="1" stop-color="white" stop-opacity="0"/>
</linearGradient>
<linearGradient id="paint4_linear" x1="29.5654" y1="19.5549" x2="29.5654" y2="27.0698" gradientUnits="userSpaceOnUse">
<stop stop-color="white"/>
<stop offset="1" stop-color="white" stop-opacity="0"/>
</linearGradient>
<linearGradient id="paint5_linear" x1="29.7671" y1="26.9272" x2="29.7671" y2="34.4421" gradientUnits="userSpaceOnUse">
<stop stop-color="white"/>
<stop offset="1" stop-color="white" stop-opacity="0"/>
</linearGradient>
<linearGradient id="paint6_linear" x1="32.306" y1="7.27163" x2="32.306" y2="44.8463" gradientUnits="userSpaceOnUse">
<stop stop-color="white"/>
<stop offset="1" stop-color="white" stop-opacity="0"/>
</linearGradient>
<linearGradient id="paint7_linear" x1="44.4084" y1="26.9272" x2="44.4084" y2="34.4421" gradientUnits="userSpaceOnUse">
<stop stop-color="white"/>
<stop offset="1" stop-color="white" stop-opacity="0"/>
</linearGradient>
<linearGradient id="paint8_linear" x1="30.5101" y1="27.2955" x2="30.5101" y2="56.0704" gradientUnits="userSpaceOnUse">
<stop stop-color="white"/>
<stop offset="1" stop-color="white" stop-opacity="0"/>
</linearGradient>
<linearGradient id="paint9_linear" x1="30.5032" y1="27.3982" x2="30.5032" y2="56.0406" gradientUnits="userSpaceOnUse">
<stop stop-color="white"/>
<stop offset="1" stop-color="white" stop-opacity="0"/>
</linearGradient>
<linearGradient id="paint10_linear" x1="44.6704" y1="41.1962" x2="44.6704" y2="48.7112" gradientUnits="userSpaceOnUse">
<stop stop-color="white"/>
<stop offset="1" stop-color="white" stop-opacity="0"/>
</linearGradient>
<linearGradient id="paint11_linear" x1="47.1301" y1="37.3964" x2="47.1301" y2="45.8507" gradientUnits="userSpaceOnUse">
<stop stop-color="white"/>
<stop offset="1" stop-color="white" stop-opacity="0"/>
</linearGradient>
<linearGradient id="paint12_linear" x1="47.1301" y1="43.7673" x2="47.1301" y2="52.2216" gradientUnits="userSpaceOnUse">
<stop stop-color="white"/>
<stop offset="1" stop-color="white" stop-opacity="0"/>
</linearGradient>
<linearGradient id="paint13_linear" x1="6.37729" y1="-89.3076" x2="6.37729" y2="100.896" gradientUnits="userSpaceOnUse">
<stop stop-color="white"/>
<stop offset="1" stop-color="white" stop-opacity="0"/>
</linearGradient>
<linearGradient id="paint14_linear" x1="16.6517" y1="-17.4132" x2="16.6517" y2="15.2392" gradientUnits="userSpaceOnUse">
<stop stop-color="white"/>
<stop offset="1" stop-color="white" stop-opacity="0"/>
</linearGradient>
<linearGradient id="paint15_linear" x1="2.35655" y1="-30.7922" x2="2.35655" y2="26.9635" gradientUnits="userSpaceOnUse">
<stop stop-color="white"/>
<stop offset="1" stop-color="white" stop-opacity="0"/>
</linearGradient>
<linearGradient id="paint16_linear" x1="9.29021" y1="15.9299" x2="9.29021" y2="23.4448" gradientUnits="userSpaceOnUse">
<stop stop-color="white"/>
<stop offset="1" stop-color="white" stop-opacity="0"/>
</linearGradient>
<linearGradient id="paint17_linear" x1="9.29021" y1="22.047" x2="9.29021" y2="29.562" gradientUnits="userSpaceOnUse">
<stop stop-color="white"/>
<stop offset="1" stop-color="white" stop-opacity="0"/>
</linearGradient>
<linearGradient id="paint18_linear" x1="8.40097" y1="28.1642" x2="8.40097" y2="35.6792" gradientUnits="userSpaceOnUse">
<stop stop-color="white"/>
<stop offset="1" stop-color="white" stop-opacity="0"/>
</linearGradient>
<clipPath id="clip0">
<rect width="56" height="58" fill="white"/>
</clipPath>
</defs>
</svg>
