<svg width="57" height="53" viewBox="0 0 57 53" fill="none" xmlns="http://www.w3.org/2000/svg">
<path d="M55.391 31.4457C55.9948 30.66 56.2735 29.6893 56.1806 28.6724C56.0877 27.748 55.6233 26.9622 54.973 26.3613C55.2053 26.1764 55.391 25.9915 55.5768 25.7604C56.1806 24.9746 56.4593 24.004 56.3664 22.9871C56.1342 20.9995 54.2764 19.5204 52.2793 19.7515L49.7248 18.5035C49.0282 18.0875 48.1922 17.9026 47.4026 17.9488H47.3562L35.6057 19.2431L35.4664 19.1044V19.0582V19.012C34.909 17.7177 34.6304 16.2386 34.7697 14.852L35.1877 9.16662V9.1204C35.1877 8.51951 35.1877 5.56129 34.5375 4.35951C33.3764 2.18706 31.0077 0.846619 28.5462 0.939064H28.0353C27.5708 0.939064 27.1528 1.12395 26.8742 1.49373C26.5491 1.81729 26.4097 2.23329 26.4097 2.69551V2.92662C26.5026 5.33017 26.3633 7.73373 26.0382 10.1373L25.9453 10.8768C25.3415 12.4484 24.6448 14.2048 23.7624 15.4528C23.2515 16.1924 22.6013 17.1631 22.0904 18.18L20.8828 20.4911C20.4648 21.3231 20.2326 21.924 20.0933 22.6173C19.9539 23.4493 19.5824 24.1888 19.0715 24.7435C18.7464 25.1133 18.4677 25.3444 17.5853 25.3906L12.8015 25.5755H1.56195C1.32972 25.5755 1.0975 25.668 0.911723 25.8528C0.725946 26.0377 0.633057 26.2688 0.633057 26.5V51.1364C0.633057 51.6449 1.05106 52.0608 1.56195 52.0608H12.7551C13.2659 52.0608 13.6839 51.6449 13.6839 51.1364V47.1151C13.7768 47.1151 13.8697 47.1151 13.9162 47.1151L22.0904 46.0982L28.5462 47.6697C30.9613 48.4093 33.4693 48.8253 36.0237 48.8253C37.0455 48.8253 38.1137 48.7791 39.1819 48.6404L49.3997 47.0226C49.4462 47.0226 49.4926 47.0226 49.5391 46.9764C50.5144 46.6528 51.3968 45.9595 51.9077 45.0351L52.465 44.1106C53.1153 43.8795 53.6726 43.4635 54.0906 42.9088C54.6944 42.1231 54.973 41.1524 54.8337 40.1355C54.7408 39.3497 54.4157 38.6564 53.9048 38.1017C54.3693 37.8706 54.7873 37.5008 55.1124 37.0848C55.7162 36.2991 55.9948 35.3284 55.9019 34.3115C55.809 33.3871 55.3446 32.6013 54.6944 32.0004C55.0195 31.908 55.2053 31.6768 55.391 31.4457ZM11.8262 50.212H2.49083V27.4244L11.8262 27.4706V50.212ZM52.8366 25.3444L47.5884 25.9915L43.4084 26.5C42.3866 26.6386 41.4113 25.8991 41.3184 24.8822C41.2719 24.3737 41.4113 23.9115 41.6899 23.4955C42.015 23.0795 42.433 22.8484 42.9439 22.8022L52.3722 21.6466C52.465 21.6466 52.5115 21.6466 52.6044 21.6466C53.5333 21.6466 54.3693 22.34 54.4622 23.3106C54.5086 23.8191 54.3693 24.2813 54.0906 24.6973C53.8119 25.0208 53.3475 25.2982 52.8366 25.3444ZM53.0688 40.3666C53.1153 40.8751 52.9759 41.3373 52.6973 41.7533C52.3722 42.1693 51.9542 42.4004 51.4433 42.4466L45.4984 43.1862C44.4766 43.3248 43.5013 42.5853 43.4084 41.5684C43.3619 41.06 43.5013 40.5977 43.7799 40.1817C44.105 39.7657 44.523 39.5346 45.0339 39.4884L50.9788 38.7488C51.0717 38.7488 51.1182 38.7488 51.211 38.7488C52.1399 38.7488 52.9759 39.4422 53.0688 40.3666ZM53.7655 35.9755C53.4404 36.3915 53.0224 36.6226 52.5115 36.6688L46.7988 37.3622L44.8017 37.5933C43.7799 37.732 42.8046 36.9924 42.7117 35.9755C42.6653 35.4671 42.8046 35.0048 43.0833 34.5888C43.4084 34.1728 43.8264 33.9417 44.3373 33.8955L52.0006 32.9711C52.0935 32.9711 52.1399 32.9711 52.2328 32.9711C53.1617 32.9711 53.9977 33.6644 54.0906 34.6351C54.1835 35.0973 54.0442 35.6057 53.7655 35.9755ZM52.6508 31.0297L46.4737 31.7693L44.0586 32.0466C43.0368 32.1853 42.0615 31.4457 41.9686 30.4288C41.9222 29.9204 42.0615 29.4582 42.3402 29.0422C42.6653 28.6262 43.0833 28.3951 43.5942 28.3488L52.1399 27.2857C52.2328 27.2857 52.2793 27.2857 52.3722 27.2857C53.301 27.2857 54.137 27.9791 54.2299 28.9497C54.2764 29.4582 54.1371 29.9204 53.8584 30.3364C53.6262 30.7062 53.1617 30.9835 52.6508 31.0297ZM49.0746 45.22L38.9497 46.8377C35.6057 47.2537 32.3082 46.9302 29.1499 45.9595H29.1035L22.4619 44.2955C22.3691 44.2493 22.2297 44.2493 22.1368 44.2955L13.7768 45.3124V27.4244L17.6782 27.2857C18.9322 27.2395 19.7682 26.8697 20.5113 25.9915C21.2079 25.1595 21.7188 24.1426 21.9046 22.9871C21.9975 22.5711 22.1368 22.1088 22.5084 21.3693L23.7159 19.0582C24.2268 18.0875 24.7842 17.2093 25.2951 16.516C26.2704 15.0831 27.0599 13.2342 27.7102 11.4315C27.7102 11.3853 27.7566 11.2928 27.7566 11.2466L27.8959 10.4146C28.2675 7.91862 28.4068 5.3764 28.3139 2.8804V2.78795H28.6391C30.4039 2.74173 32.0759 3.66617 32.9119 5.23773C33.2371 5.83862 33.3299 7.8724 33.3299 9.07417L32.9119 14.7133C32.7726 16.4235 33.0977 18.1337 33.7479 19.7053L34.0266 20.5835L35.0948 23.9115C35.2342 24.3275 35.6057 24.5586 35.9773 24.5586C36.0702 24.5586 36.163 24.5586 36.2559 24.5124C36.7668 24.3737 36.9991 23.8191 36.8597 23.3568L36.1631 21.092L47.5419 19.844C48.0064 19.844 48.4708 19.9364 48.8888 20.1675H48.9353L42.8511 20.9071C41.8757 21.0457 40.9468 21.508 40.3431 22.2937C39.7393 23.0795 39.4606 24.0502 39.5535 25.0671C39.6928 26.1764 40.2966 27.1008 41.1791 27.7017C41.1326 27.748 41.0862 27.8404 40.9933 27.8866C40.3895 28.6724 40.1108 29.6431 40.2502 30.66C40.3895 31.7693 40.9933 32.6937 41.8757 33.2946C41.8293 33.3408 41.7828 33.4333 41.6899 33.4795C41.0862 34.2653 40.8075 35.236 40.9004 36.2528C41.0397 37.3622 41.6435 38.2866 42.5259 38.8875C42.4795 38.9337 42.4331 39.0262 42.3402 39.0724C41.7364 39.8582 41.4577 40.8288 41.5506 41.8457C41.7828 43.7408 43.4084 45.1275 45.2662 45.1275C45.4055 45.1275 45.5913 45.1275 45.7306 45.0813L50.0964 44.5728C49.7713 44.804 49.4462 45.0351 49.0746 45.22Z" fill="#F36327"/>
<path d="M55.391 31.4457C55.9948 30.66 56.2735 29.6893 56.1806 28.6724C56.0877 27.748 55.6233 26.9622 54.973 26.3613C55.2053 26.1764 55.391 25.9915 55.5768 25.7604C56.1806 24.9746 56.4593 24.004 56.3664 22.9871C56.1342 20.9995 54.2764 19.5204 52.2793 19.7515L49.7248 18.5035C49.0282 18.0875 48.1922 17.9026 47.4026 17.9488H47.3562L35.6057 19.2431L35.4664 19.1044V19.0582V19.012C34.909 17.7177 34.6304 16.2386 34.7697 14.852L35.1877 9.16662V9.1204C35.1877 8.51951 35.1877 5.56129 34.5375 4.35951C33.3764 2.18706 31.0077 0.846619 28.5462 0.939064H28.0353C27.5708 0.939064 27.1528 1.12395 26.8742 1.49373C26.5491 1.81729 26.4097 2.23329 26.4097 2.69551V2.92662C26.5026 5.33017 26.3633 7.73373 26.0382 10.1373L25.9453 10.8768C25.3415 12.4484 24.6448 14.2048 23.7624 15.4528C23.2515 16.1924 22.6013 17.1631 22.0904 18.18L20.8828 20.4911C20.4648 21.3231 20.2326 21.924 20.0933 22.6173C19.9539 23.4493 19.5824 24.1888 19.0715 24.7435C18.7464 25.1133 18.4677 25.3444 17.5853 25.3906L12.8015 25.5755H1.56195C1.32972 25.5755 1.0975 25.668 0.911723 25.8528C0.725946 26.0377 0.633057 26.2688 0.633057 26.5V51.1364C0.633057 51.6449 1.05106 52.0608 1.56195 52.0608H12.7551C13.2659 52.0608 13.6839 51.6449 13.6839 51.1364V47.1151C13.7768 47.1151 13.8697 47.1151 13.9162 47.1151L22.0904 46.0982L28.5462 47.6697C30.9613 48.4093 33.4693 48.8253 36.0237 48.8253C37.0455 48.8253 38.1137 48.7791 39.1819 48.6404L49.3997 47.0226C49.4462 47.0226 49.4926 47.0226 49.5391 46.9764C50.5144 46.6528 51.3968 45.9595 51.9077 45.0351L52.465 44.1106C53.1153 43.8795 53.6726 43.4635 54.0906 42.9088C54.6944 42.1231 54.973 41.1524 54.8337 40.1355C54.7408 39.3497 54.4157 38.6564 53.9048 38.1017C54.3693 37.8706 54.7873 37.5008 55.1124 37.0848C55.7162 36.2991 55.9948 35.3284 55.9019 34.3115C55.809 33.3871 55.3446 32.6013 54.6944 32.0004C55.0195 31.908 55.2053 31.6768 55.391 31.4457ZM11.8262 50.212H2.49083V27.4244L11.8262 27.4706V50.212ZM52.8366 25.3444L47.5884 25.9915L43.4084 26.5C42.3866 26.6386 41.4113 25.8991 41.3184 24.8822C41.2719 24.3737 41.4113 23.9115 41.6899 23.4955C42.015 23.0795 42.433 22.8484 42.9439 22.8022L52.3722 21.6466C52.465 21.6466 52.5115 21.6466 52.6044 21.6466C53.5333 21.6466 54.3693 22.34 54.4622 23.3106C54.5086 23.8191 54.3693 24.2813 54.0906 24.6973C53.8119 25.0208 53.3475 25.2982 52.8366 25.3444ZM53.0688 40.3666C53.1153 40.8751 52.9759 41.3373 52.6973 41.7533C52.3722 42.1693 51.9542 42.4004 51.4433 42.4466L45.4984 43.1862C44.4766 43.3248 43.5013 42.5853 43.4084 41.5684C43.3619 41.06 43.5013 40.5977 43.7799 40.1817C44.105 39.7657 44.523 39.5346 45.0339 39.4884L50.9788 38.7488C51.0717 38.7488 51.1182 38.7488 51.211 38.7488C52.1399 38.7488 52.9759 39.4422 53.0688 40.3666ZM53.7655 35.9755C53.4404 36.3915 53.0224 36.6226 52.5115 36.6688L46.7988 37.3622L44.8017 37.5933C43.7799 37.732 42.8046 36.9924 42.7117 35.9755C42.6653 35.4671 42.8046 35.0048 43.0833 34.5888C43.4084 34.1728 43.8264 33.9417 44.3373 33.8955L52.0006 32.9711C52.0935 32.9711 52.1399 32.9711 52.2328 32.9711C53.1617 32.9711 53.9977 33.6644 54.0906 34.6351C54.1835 35.0973 54.0442 35.6057 53.7655 35.9755ZM52.6508 31.0297L46.4737 31.7693L44.0586 32.0466C43.0368 32.1853 42.0615 31.4457 41.9686 30.4288C41.9222 29.9204 42.0615 29.4582 42.3402 29.0422C42.6653 28.6262 43.0833 28.3951 43.5942 28.3488L52.1399 27.2857C52.2328 27.2857 52.2793 27.2857 52.3722 27.2857C53.301 27.2857 54.137 27.9791 54.2299 28.9497C54.2764 29.4582 54.1371 29.9204 53.8584 30.3364C53.6262 30.7062 53.1617 30.9835 52.6508 31.0297ZM49.0746 45.22L38.9497 46.8377C35.6057 47.2537 32.3082 46.9302 29.1499 45.9595H29.1035L22.4619 44.2955C22.3691 44.2493 22.2297 44.2493 22.1368 44.2955L13.7768 45.3124V27.4244L17.6782 27.2857C18.9322 27.2395 19.7682 26.8697 20.5113 25.9915C21.2079 25.1595 21.7188 24.1426 21.9046 22.9871C21.9975 22.5711 22.1368 22.1088 22.5084 21.3693L23.7159 19.0582C24.2268 18.0875 24.7842 17.2093 25.2951 16.516C26.2704 15.0831 27.0599 13.2342 27.7102 11.4315C27.7102 11.3853 27.7566 11.2928 27.7566 11.2466L27.8959 10.4146C28.2675 7.91862 28.4068 5.3764 28.3139 2.8804V2.78795H28.6391C30.4039 2.74173 32.0759 3.66617 32.9119 5.23773C33.2371 5.83862 33.3299 7.8724 33.3299 9.07417L32.9119 14.7133C32.7726 16.4235 33.0977 18.1337 33.7479 19.7053L34.0266 20.5835L35.0948 23.9115C35.2342 24.3275 35.6057 24.5586 35.9773 24.5586C36.0702 24.5586 36.163 24.5586 36.2559 24.5124C36.7668 24.3737 36.9991 23.8191 36.8597 23.3568L36.1631 21.092L47.5419 19.844C48.0064 19.844 48.4708 19.9364 48.8888 20.1675H48.9353L42.8511 20.9071C41.8757 21.0457 40.9468 21.508 40.3431 22.2937C39.7393 23.0795 39.4606 24.0502 39.5535 25.0671C39.6928 26.1764 40.2966 27.1008 41.1791 27.7017C41.1326 27.748 41.0862 27.8404 40.9933 27.8866C40.3895 28.6724 40.1108 29.6431 40.2502 30.66C40.3895 31.7693 40.9933 32.6937 41.8757 33.2946C41.8293 33.3408 41.7828 33.4333 41.6899 33.4795C41.0862 34.2653 40.8075 35.236 40.9004 36.2528C41.0397 37.3622 41.6435 38.2866 42.5259 38.8875C42.4795 38.9337 42.4331 39.0262 42.3402 39.0724C41.7364 39.8582 41.4577 40.8288 41.5506 41.8457C41.7828 43.7408 43.4084 45.1275 45.2662 45.1275C45.4055 45.1275 45.5913 45.1275 45.7306 45.0813L50.0964 44.5728C49.7713 44.804 49.4462 45.0351 49.0746 45.22Z" fill="url(#paint0_linear)" style="mix-blend-mode:overlay"/>
<defs>
<linearGradient id="paint0_linear" x1="8.91802" y1="-112.111" x2="8.91801" y2="99.8672" gradientUnits="userSpaceOnUse">
<stop stop-color="white"/>
<stop offset="1" stop-color="white" stop-opacity="0"/>
</linearGradient>
</defs>
</svg>
