<svg width="63" height="41" viewBox="0 0 63 41" fill="none" xmlns="http://www.w3.org/2000/svg">
<path d="M62.6895 21.7208L47.1895 7.95886C47.0257 7.81681 46.816 7.7381 46.6 7.7381H37.4V1.40476C37.4 0.904429 36.9977 0.5 36.5 0.5H0.9C0.4032 0.5 0 0.904429 0 1.40476V34.1667C0 34.667 0.4032 35.0714 0.9 35.0714H10.472C10.9112 38.1359 13.532 40.5 16.7 40.5C19.868 40.5 22.4888 38.1359 22.928 35.0714H29.3H35.6H36.5H42.172C42.6112 38.1359 45.2329 40.5 48.4 40.5C51.5671 40.5 54.1888 38.1359 54.628 35.0714H62.1C62.5977 35.0714 63 34.667 63 34.1667V22.4048C63 22.1424 62.8866 21.8936 62.6895 21.7208ZM1.8 2.30952H35.6V23.3095H1.8V2.30952ZM16.7 38.6905C14.2187 38.6905 12.2 36.6611 12.2 34.1667C12.2 31.6722 14.2187 29.6429 16.7 29.6429C19.1813 29.6429 21.2 31.6722 21.2 34.1667C21.2 36.6611 19.1813 38.6905 16.7 38.6905ZM30.2 33.2619V30.5476H35.6V33.2619H30.2ZM48.4 38.6905C45.9187 38.6905 43.9 36.6611 43.9 34.1667C43.9 31.6722 45.9187 29.6429 48.4 29.6429C50.8813 29.6429 52.9 31.6722 52.9 34.1667C52.9 36.6611 50.8813 38.6905 48.4 38.6905ZM61.2 33.2619H54.628C54.1888 30.1975 51.5671 27.8333 48.4 27.8333C45.2329 27.8333 42.6112 30.1975 42.172 33.2619H37.4V29.6429C37.4 29.1425 36.9977 28.7381 36.5 28.7381H29.3C28.8032 28.7381 28.4 29.1425 28.4 29.6429V33.2619H22.928C22.4888 30.1975 19.868 27.8333 16.7 27.8333C13.532 27.8333 10.9112 30.1975 10.472 33.2619H1.8V25.119H36.5C36.9977 25.119 37.4 24.7146 37.4 24.2143V9.54762H46.2643L61.2 22.8182V33.2619ZM44.4211 11.4413C44.1034 11.5897 43.9 11.909 43.9 12.2619V24.2143C43.9 24.7146 44.3023 25.119 44.8 25.119H56.5C56.878 25.119 59.2155 24.882 59.3451 24.5255C59.4747 24.1691 59.3685 23.7691 59.0805 23.524L45.3805 11.5716C45.115 11.3436 44.7406 11.2929 44.4211 11.4413ZM45.7 14.2126L56.0439 23.3095H45.7V14.2126ZM16.7 31.4524C15.2114 31.4524 14 32.6702 14 34.1667C14 35.6631 15.2114 36.881 16.7 36.881C18.1886 36.881 19.4 35.6631 19.4 34.1667C19.4 32.6702 18.1886 31.4524 16.7 31.4524ZM16.7 35.0714C16.2041 35.0714 15.8 34.6661 15.8 34.1667C15.8 33.6672 16.2041 33.2619 16.7 33.2619C17.1959 33.2619 17.6 33.6672 17.6 34.1667C17.6 34.6661 17.1959 35.0714 16.7 35.0714ZM48.4 31.4524C46.9114 31.4524 45.7 32.6702 45.7 34.1667C45.7 35.6631 46.9114 36.881 48.4 36.881C49.8886 36.881 51.1 35.6631 51.1 34.1667C51.1 32.6702 49.8886 31.4524 48.4 31.4524ZM48.4 35.0714C47.9032 35.0714 47.5 34.6661 47.5 34.1667C47.5 33.6672 47.9032 33.2619 48.4 33.2619C48.8968 33.2619 49.3 33.6672 49.3 34.1667C49.3 34.6661 48.8968 35.0714 48.4 35.0714Z" fill="#F36327"/>
<path d="M62.6895 21.7208L47.1895 7.95886C47.0257 7.81681 46.816 7.7381 46.6 7.7381H37.4V1.40476C37.4 0.904429 36.9977 0.5 36.5 0.5H0.9C0.4032 0.5 0 0.904429 0 1.40476V34.1667C0 34.667 0.4032 35.0714 0.9 35.0714H10.472C10.9112 38.1359 13.532 40.5 16.7 40.5C19.868 40.5 22.4888 38.1359 22.928 35.0714H29.3H35.6H36.5H42.172C42.6112 38.1359 45.2329 40.5 48.4 40.5C51.5671 40.5 54.1888 38.1359 54.628 35.0714H62.1C62.5977 35.0714 63 34.667 63 34.1667V22.4048C63 22.1424 62.8866 21.8936 62.6895 21.7208ZM1.8 2.30952H35.6V23.3095H1.8V2.30952ZM16.7 38.6905C14.2187 38.6905 12.2 36.6611 12.2 34.1667C12.2 31.6722 14.2187 29.6429 16.7 29.6429C19.1813 29.6429 21.2 31.6722 21.2 34.1667C21.2 36.6611 19.1813 38.6905 16.7 38.6905ZM30.2 33.2619V30.5476H35.6V33.2619H30.2ZM48.4 38.6905C45.9187 38.6905 43.9 36.6611 43.9 34.1667C43.9 31.6722 45.9187 29.6429 48.4 29.6429C50.8813 29.6429 52.9 31.6722 52.9 34.1667C52.9 36.6611 50.8813 38.6905 48.4 38.6905ZM61.2 33.2619H54.628C54.1888 30.1975 51.5671 27.8333 48.4 27.8333C45.2329 27.8333 42.6112 30.1975 42.172 33.2619H37.4V29.6429C37.4 29.1425 36.9977 28.7381 36.5 28.7381H29.3C28.8032 28.7381 28.4 29.1425 28.4 29.6429V33.2619H22.928C22.4888 30.1975 19.868 27.8333 16.7 27.8333C13.532 27.8333 10.9112 30.1975 10.472 33.2619H1.8V25.119H36.5C36.9977 25.119 37.4 24.7146 37.4 24.2143V9.54762H46.2643L61.2 22.8182V33.2619ZM44.4211 11.4413C44.1034 11.5897 43.9 11.909 43.9 12.2619V24.2143C43.9 24.7146 44.3023 25.119 44.8 25.119H56.5C56.878 25.119 59.2155 24.882 59.3451 24.5255C59.4747 24.1691 59.3685 23.7691 59.0805 23.524L45.3805 11.5716C45.115 11.3436 44.7406 11.2929 44.4211 11.4413ZM45.7 14.2126L56.0439 23.3095H45.7V14.2126ZM16.7 31.4524C15.2114 31.4524 14 32.6702 14 34.1667C14 35.6631 15.2114 36.881 16.7 36.881C18.1886 36.881 19.4 35.6631 19.4 34.1667C19.4 32.6702 18.1886 31.4524 16.7 31.4524ZM16.7 35.0714C16.2041 35.0714 15.8 34.6661 15.8 34.1667C15.8 33.6672 16.2041 33.2619 16.7 33.2619C17.1959 33.2619 17.6 33.6672 17.6 34.1667C17.6 34.6661 17.1959 35.0714 16.7 35.0714ZM48.4 31.4524C46.9114 31.4524 45.7 32.6702 45.7 34.1667C45.7 35.6631 46.9114 36.881 48.4 36.881C49.8886 36.881 51.1 35.6631 51.1 34.1667C51.1 32.6702 49.8886 31.4524 48.4 31.4524ZM48.4 35.0714C47.9032 35.0714 47.5 34.6661 47.5 34.1667C47.5 33.6672 47.9032 33.2619 48.4 33.2619C48.8968 33.2619 49.3 33.6672 49.3 34.1667C49.3 34.6661 48.8968 35.0714 48.4 35.0714Z" fill="url(#paint0_linear)" style="mix-blend-mode:overlay"/>
<defs>
<linearGradient id="paint0_linear" x1="9.36224" y1="-87.9444" x2="9.36223" y2="77.9026" gradientUnits="userSpaceOnUse">
<stop stop-color="white"/>
<stop offset="1" stop-color="white" stop-opacity="0"/>
</linearGradient>
</defs>
</svg>
