<svg width="56" height="59" viewBox="0 0 56 59" fill="none" xmlns="http://www.w3.org/2000/svg">
<path d="M55.885 56.7835C49.1808 52.4726 41.9591 50.1171 33.8339 49.5915V45.8629C35.5821 45.0462 37.1385 43.8767 38.4107 42.4415H43.8713C47.0207 42.4415 49.5839 39.8558 49.5839 36.6788V22.6558C49.5839 10.5587 39.9011 0.717041 28.0005 0.717041C16.0994 0.717041 6.4172 10.5587 6.4172 22.6558V36.6788C6.4172 39.8558 8.97979 42.4415 12.1298 42.4415H17.591C18.8626 43.8767 20.419 45.0462 22.1672 45.8629V49.5915C14.0414 50.1171 6.8197 52.4726 0.114868 56.7835L1.05112 58.2832C7.22279 54.3161 13.5957 52.1305 20.9457 51.4706C22.9302 52.5158 25.4677 53.0946 28.1452 53.0946C30.7918 53.0946 33.3351 52.5258 35.3132 51.4949C42.5541 52.1826 48.8495 54.3629 54.9476 58.2832L55.885 56.7835ZM12.1292 40.666C9.94403 40.666 8.16662 38.8775 8.16662 36.6788V22.6558C8.16662 11.537 17.0636 2.49196 28 2.49196C38.9363 2.49196 47.8333 11.537 47.8333 22.6552V36.6788C47.8333 38.8775 46.0553 40.666 43.8707 40.666H39.7489C40.684 39.2036 41.3641 37.5601 41.7182 35.7958C41.8541 35.2732 41.9457 34.7187 41.9947 34.1327C42.0939 34.141 42.1907 34.1552 42.2922 34.1552C44.3829 34.1552 46.0839 32.4294 46.0839 30.3083V26.7573C46.0839 24.6361 44.3829 22.9103 42.2916 22.9103C42.1925 22.9103 42.0974 22.9239 42.0005 22.9316V22.0492C42.2193 22.0279 42.4398 22.0096 42.6545 21.9729C43.1305 21.8924 43.453 21.4355 43.3731 20.9513C43.2938 20.4678 42.84 20.1393 42.3657 20.2216C37.471 21.0514 30.5065 16.9345 29.7348 12.7597C29.6607 12.3579 29.3265 12.0596 28.924 12.0365C28.5139 12.0176 28.1563 12.2721 28.0379 12.6627C26.2721 18.4988 17.9007 21.3041 12.5206 21.4307C12.0376 21.4426 11.655 21.8492 11.6666 22.3392C11.6777 22.8221 12.0674 23.2062 12.541 23.2062C12.548 23.2062 12.5545 23.2062 12.562 23.2062C13.0211 23.1944 13.5059 23.1589 14 23.1104V32.9562C14 35.7976 14.8295 38.4431 16.251 40.666H12.1292ZM42.0122 32.3513C42.0075 32.2619 42.007 32.1755 42.0005 32.0844V24.716C42.0962 24.7024 42.1919 24.6864 42.2922 24.6864C43.418 24.6864 44.3339 25.6156 44.3339 26.7579V30.3089C44.3339 31.4511 43.418 32.3803 42.2922 32.3803H42.2916C42.196 32.3803 42.1044 32.3643 42.0122 32.3513ZM15.75 32.9562V22.8784C20.6161 22.0273 26.3013 19.5351 28.8096 15.2419C30.786 18.8184 35.7163 21.7669 40.25 22.0711V23.5217V26.7555V30.3118V32.9568C40.25 33.7788 40.166 34.5802 40.0155 35.3578C39.361 37.7968 37.5036 39.3018 34.3455 40.0043C33.9325 39.3379 33.2062 38.8917 32.375 38.8917H29.4583C28.172 38.8917 27.125 39.9534 27.125 41.259C27.125 42.564 28.1715 43.6264 29.4583 43.6264H32.3755C33.4955 43.6264 34.4318 42.8209 34.6564 41.7514C35.7145 41.52 36.6595 41.2028 37.4908 40.8021C35.2432 43.595 31.8249 45.3847 28 45.3847C21.2455 45.3847 15.75 39.8096 15.75 32.9562ZM32.9589 41.2579C32.9589 41.584 32.697 41.8497 32.3755 41.8497H29.4583C29.1363 41.8497 28.8755 41.584 28.8755 41.2579C28.8755 40.9312 29.1363 40.666 29.4583 40.666H32.3755C32.697 40.666 32.9589 40.9312 32.9589 41.2579ZM23.9166 50.745V46.5412C25.2093 46.9424 26.5801 47.1596 28 47.1596C29.4198 47.1596 30.7906 46.9424 32.0833 46.5418V50.8273C30.8606 51.1451 29.5242 51.3185 28.1458 51.3185C26.6711 51.3191 25.2198 51.1143 23.9166 50.745Z" fill="#F36327"/>
<path d="M55.885 56.7835C49.1808 52.4726 41.9591 50.1171 33.8339 49.5915V45.8629C35.5821 45.0462 37.1385 43.8767 38.4107 42.4415H43.8713C47.0207 42.4415 49.5839 39.8558 49.5839 36.6788V22.6558C49.5839 10.5587 39.9011 0.717041 28.0005 0.717041C16.0994 0.717041 6.4172 10.5587 6.4172 22.6558V36.6788C6.4172 39.8558 8.97979 42.4415 12.1298 42.4415H17.591C18.8626 43.8767 20.419 45.0462 22.1672 45.8629V49.5915C14.0414 50.1171 6.8197 52.4726 0.114868 56.7835L1.05112 58.2832C7.22279 54.3161 13.5957 52.1305 20.9457 51.4706C22.9302 52.5158 25.4677 53.0946 28.1452 53.0946C30.7918 53.0946 33.3351 52.5258 35.3132 51.4949C42.5541 52.1826 48.8495 54.3629 54.9476 58.2832L55.885 56.7835ZM12.1292 40.666C9.94403 40.666 8.16662 38.8775 8.16662 36.6788V22.6558C8.16662 11.537 17.0636 2.49196 28 2.49196C38.9363 2.49196 47.8333 11.537 47.8333 22.6552V36.6788C47.8333 38.8775 46.0553 40.666 43.8707 40.666H39.7489C40.684 39.2036 41.3641 37.5601 41.7182 35.7958C41.8541 35.2732 41.9457 34.7187 41.9947 34.1327C42.0939 34.141 42.1907 34.1552 42.2922 34.1552C44.3829 34.1552 46.0839 32.4294 46.0839 30.3083V26.7573C46.0839 24.6361 44.3829 22.9103 42.2916 22.9103C42.1925 22.9103 42.0974 22.9239 42.0005 22.9316V22.0492C42.2193 22.0279 42.4398 22.0096 42.6545 21.9729C43.1305 21.8924 43.453 21.4355 43.3731 20.9513C43.2938 20.4678 42.84 20.1393 42.3657 20.2216C37.471 21.0514 30.5065 16.9345 29.7348 12.7597C29.6607 12.3579 29.3265 12.0596 28.924 12.0365C28.5139 12.0176 28.1563 12.2721 28.0379 12.6627C26.2721 18.4988 17.9007 21.3041 12.5206 21.4307C12.0376 21.4426 11.655 21.8492 11.6666 22.3392C11.6777 22.8221 12.0674 23.2062 12.541 23.2062C12.548 23.2062 12.5545 23.2062 12.562 23.2062C13.0211 23.1944 13.5059 23.1589 14 23.1104V32.9562C14 35.7976 14.8295 38.4431 16.251 40.666H12.1292ZM42.0122 32.3513C42.0075 32.2619 42.007 32.1755 42.0005 32.0844V24.716C42.0962 24.7024 42.1919 24.6864 42.2922 24.6864C43.418 24.6864 44.3339 25.6156 44.3339 26.7579V30.3089C44.3339 31.4511 43.418 32.3803 42.2922 32.3803H42.2916C42.196 32.3803 42.1044 32.3643 42.0122 32.3513ZM15.75 32.9562V22.8784C20.6161 22.0273 26.3013 19.5351 28.8096 15.2419C30.786 18.8184 35.7163 21.7669 40.25 22.0711V23.5217V26.7555V30.3118V32.9568C40.25 33.7788 40.166 34.5802 40.0155 35.3578C39.361 37.7968 37.5036 39.3018 34.3455 40.0043C33.9325 39.3379 33.2062 38.8917 32.375 38.8917H29.4583C28.172 38.8917 27.125 39.9534 27.125 41.259C27.125 42.564 28.1715 43.6264 29.4583 43.6264H32.3755C33.4955 43.6264 34.4318 42.8209 34.6564 41.7514C35.7145 41.52 36.6595 41.2028 37.4908 40.8021C35.2432 43.595 31.8249 45.3847 28 45.3847C21.2455 45.3847 15.75 39.8096 15.75 32.9562ZM32.9589 41.2579C32.9589 41.584 32.697 41.8497 32.3755 41.8497H29.4583C29.1363 41.8497 28.8755 41.584 28.8755 41.2579C28.8755 40.9312 29.1363 40.666 29.4583 40.666H32.3755C32.697 40.666 32.9589 40.9312 32.9589 41.2579ZM23.9166 50.745V46.5412C25.2093 46.9424 26.5801 47.1596 28 47.1596C29.4198 47.1596 30.7906 46.9424 32.0833 46.5418V50.8273C30.8606 51.1451 29.5242 51.3185 28.1458 51.3185C26.6711 51.3191 25.2198 51.1143 23.9166 50.745Z" fill="url(#paint0_linear)" style="mix-blend-mode:overlay"/>
<defs>
<linearGradient id="paint0_linear" x1="8.4027" y1="-126.568" x2="8.4027" y2="112.111" gradientUnits="userSpaceOnUse">
<stop stop-color="white"/>
<stop offset="1" stop-color="white" stop-opacity="0"/>
</linearGradient>
</defs>
</svg>
