<svg width="54" height="59" viewBox="0 0 54 59" fill="none" xmlns="http://www.w3.org/2000/svg">
<path d="M53.6606 17.1073L50.9336 14.3736C50.7527 14.1924 50.5075 14.0906 50.2518 14.0906C49.9961 14.0906 49.7509 14.1924 49.5701 14.3736L47.5239 16.4239C47.343 16.2427 47.0978 16.1409 46.8421 16.1409C46.5864 16.1409 46.3412 16.2427 46.1604 16.4239L44.3571 18.2316V3.4C44.3571 2.63087 44.0524 1.89325 43.5098 1.34939C42.9673 0.805535 42.2315 0.5 41.4643 0.5H2.89286C2.12562 0.5 1.38981 0.805535 0.847298 1.34939C0.304782 1.89325 0 2.63087 0 3.4V55.6C0 56.3691 0.304782 57.1068 0.847298 57.6506C1.38981 58.1945 2.12562 58.5 2.89286 58.5H41.4643C42.2315 58.5 42.9673 58.1945 43.5098 57.6506C44.0524 57.1068 44.3571 56.3691 44.3571 55.6V32.3884L44.7969 32.8282L51.6153 25.9939C51.705 25.9041 51.7761 25.7975 51.8246 25.6802C51.8732 25.5628 51.8981 25.437 51.8981 25.31C51.8981 25.1829 51.8732 25.0572 51.8246 24.9398C51.7761 24.8225 51.705 24.7158 51.6153 24.6261L50.2518 23.2592L51.6153 21.8923C51.7961 21.7111 51.8977 21.4652 51.8977 21.2089C51.8977 20.9526 51.7961 20.7067 51.6153 20.5255L53.6606 18.4742C53.8413 18.2929 53.9429 18.0471 53.9429 17.7908C53.9429 17.5344 53.8413 17.2886 53.6606 17.1073ZM46.8421 18.4742L49.5701 21.2089L46.8421 23.9426L44.1151 21.2089L46.8421 18.4742ZM29.1137 41.7148L26.3867 38.9811L42.7506 22.5758L45.4786 25.3105L29.1137 41.7148ZM23.4389 44.2281L25.0782 40.4001L27.6981 43.0333L23.8796 44.6767L23.4389 44.2281ZM36.6429 2.43333V8.7998L35.396 7.5499C35.2152 7.36868 34.97 7.26687 34.7143 7.26687C34.4586 7.26687 34.2134 7.36868 34.0325 7.5499L32.7857 8.7998V2.43333H36.6429ZM41.4643 56.5667H2.89286C2.63711 56.5667 2.39184 56.4648 2.211 56.2835C2.03017 56.1022 1.92857 55.8564 1.92857 55.6V3.4C1.92857 3.14362 2.03017 2.89775 2.211 2.71646C2.39184 2.53518 2.63711 2.43333 2.89286 2.43333H30.8571V11.1333C30.8572 11.3245 30.9138 11.5113 31.0197 11.6703C31.1257 11.8292 31.2763 11.9531 31.4524 12.0262C31.6286 12.0994 31.8225 12.1185 32.0095 12.0812C32.1965 12.0439 32.3683 11.9519 32.5032 11.8168L34.7143 9.6002L36.9254 11.8168C37.0602 11.9519 37.2321 12.0439 37.4191 12.0812C37.6061 12.1185 37.8 12.0994 37.9761 12.0262C38.1523 11.9531 38.3029 11.8292 38.4089 11.6703C38.5148 11.5113 38.5714 11.3245 38.5714 11.1333V2.43333H41.4643C41.72 2.43333 41.9653 2.53518 42.1461 2.71646C42.327 2.89775 42.4286 3.14362 42.4286 3.4V20.1649L23.6597 38.9811C23.5727 39.0677 23.5033 39.1705 23.4553 39.2836L21.4071 44.0677C21.3314 44.2451 21.3105 44.4412 21.3469 44.6307C21.3833 44.8202 21.4755 44.9945 21.6116 45.131L19.5663 47.1813L20.9298 48.5482L22.9751 46.4979C23.1113 46.6343 23.2851 46.7267 23.4741 46.7632C23.6632 46.7997 23.8588 46.7787 24.0358 46.7028L28.808 44.6515C28.9209 44.6034 29.0234 44.5338 29.1099 44.4466L42.4286 31.1018V55.6C42.4286 55.8564 42.327 56.1022 42.1461 56.2835C41.9653 56.4648 41.72 56.5667 41.4643 56.5667ZM49.5701 25.3105L44.3571 30.5353V29.1684L48.8893 24.6251L49.5701 25.3105ZM50.2518 19.1586L48.8893 17.7908L50.2538 16.4239L51.6172 17.7908L50.2518 19.1586Z" fill="#F36327"/>
<path d="M53.6606 17.1073L50.9336 14.3736C50.7527 14.1924 50.5075 14.0906 50.2518 14.0906C49.9961 14.0906 49.7509 14.1924 49.5701 14.3736L47.5239 16.4239C47.343 16.2427 47.0978 16.1409 46.8421 16.1409C46.5864 16.1409 46.3412 16.2427 46.1604 16.4239L44.3571 18.2316V3.4C44.3571 2.63087 44.0524 1.89325 43.5098 1.34939C42.9673 0.805535 42.2315 0.5 41.4643 0.5H2.89286C2.12562 0.5 1.38981 0.805535 0.847298 1.34939C0.304782 1.89325 0 2.63087 0 3.4V55.6C0 56.3691 0.304782 57.1068 0.847298 57.6506C1.38981 58.1945 2.12562 58.5 2.89286 58.5H41.4643C42.2315 58.5 42.9673 58.1945 43.5098 57.6506C44.0524 57.1068 44.3571 56.3691 44.3571 55.6V32.3884L44.7969 32.8282L51.6153 25.9939C51.705 25.9041 51.7761 25.7975 51.8246 25.6802C51.8732 25.5628 51.8981 25.437 51.8981 25.31C51.8981 25.1829 51.8732 25.0572 51.8246 24.9398C51.7761 24.8225 51.705 24.7158 51.6153 24.6261L50.2518 23.2592L51.6153 21.8923C51.7961 21.7111 51.8977 21.4652 51.8977 21.2089C51.8977 20.9526 51.7961 20.7067 51.6153 20.5255L53.6606 18.4742C53.8413 18.2929 53.9429 18.0471 53.9429 17.7908C53.9429 17.5344 53.8413 17.2886 53.6606 17.1073ZM46.8421 18.4742L49.5701 21.2089L46.8421 23.9426L44.1151 21.2089L46.8421 18.4742ZM29.1137 41.7148L26.3867 38.9811L42.7506 22.5758L45.4786 25.3105L29.1137 41.7148ZM23.4389 44.2281L25.0782 40.4001L27.6981 43.0333L23.8796 44.6767L23.4389 44.2281ZM36.6429 2.43333V8.7998L35.396 7.5499C35.2152 7.36868 34.97 7.26687 34.7143 7.26687C34.4586 7.26687 34.2134 7.36868 34.0325 7.5499L32.7857 8.7998V2.43333H36.6429ZM41.4643 56.5667H2.89286C2.63711 56.5667 2.39184 56.4648 2.211 56.2835C2.03017 56.1022 1.92857 55.8564 1.92857 55.6V3.4C1.92857 3.14362 2.03017 2.89775 2.211 2.71646C2.39184 2.53518 2.63711 2.43333 2.89286 2.43333H30.8571V11.1333C30.8572 11.3245 30.9138 11.5113 31.0197 11.6703C31.1257 11.8292 31.2763 11.9531 31.4524 12.0262C31.6286 12.0994 31.8225 12.1185 32.0095 12.0812C32.1965 12.0439 32.3683 11.9519 32.5032 11.8168L34.7143 9.6002L36.9254 11.8168C37.0602 11.9519 37.2321 12.0439 37.4191 12.0812C37.6061 12.1185 37.8 12.0994 37.9761 12.0262C38.1523 11.9531 38.3029 11.8292 38.4089 11.6703C38.5148 11.5113 38.5714 11.3245 38.5714 11.1333V2.43333H41.4643C41.72 2.43333 41.9653 2.53518 42.1461 2.71646C42.327 2.89775 42.4286 3.14362 42.4286 3.4V20.1649L23.6597 38.9811C23.5727 39.0677 23.5033 39.1705 23.4553 39.2836L21.4071 44.0677C21.3314 44.2451 21.3105 44.4412 21.3469 44.6307C21.3833 44.8202 21.4755 44.9945 21.6116 45.131L19.5663 47.1813L20.9298 48.5482L22.9751 46.4979C23.1113 46.6343 23.2851 46.7267 23.4741 46.7632C23.6632 46.7997 23.8588 46.7787 24.0358 46.7028L28.808 44.6515C28.9209 44.6034 29.0234 44.5338 29.1099 44.4466L42.4286 31.1018V55.6C42.4286 55.8564 42.327 56.1022 42.1461 56.2835C41.9653 56.4648 41.72 56.5667 41.4643 56.5667ZM49.5701 25.3105L44.3571 30.5353V29.1684L48.8893 24.6251L49.5701 25.3105ZM50.2518 19.1586L48.8893 17.7908L50.2538 16.4239L51.6172 17.7908L50.2518 19.1586Z" fill="url(#paint0_linear)" style="mix-blend-mode:overlay"/>
<path d="M32.7856 19.8333H5.78564V21.7666H32.7856V19.8333Z" fill="#F36327"/>
<path d="M32.7856 19.8333H5.78564V21.7666H32.7856V19.8333Z" fill="url(#paint1_linear)" style="mix-blend-mode:overlay"/>
<path d="M32.7856 25.6333H5.78564V27.5666H32.7856V25.6333Z" fill="#F36327"/>
<path d="M32.7856 25.6333H5.78564V27.5666H32.7856V25.6333Z" fill="url(#paint2_linear)" style="mix-blend-mode:overlay"/>
<path d="M23.1428 31.4333H5.78564V33.3667H23.1428V31.4333Z" fill="#F36327"/>
<path d="M23.1428 31.4333H5.78564V33.3667H23.1428V31.4333Z" fill="url(#paint3_linear)" style="mix-blend-mode:overlay"/>
<path d="M15.4285 14.0334H5.78564V15.9668H15.4285V14.0334Z" fill="#F36327"/>
<path d="M15.4285 14.0334H5.78564V15.9668H15.4285V14.0334Z" fill="url(#paint4_linear)" style="mix-blend-mode:overlay"/>
<defs>
<linearGradient id="paint0_linear" x1="8.01629" y1="-127.744" x2="8.01628" y2="112.734" gradientUnits="userSpaceOnUse">
<stop stop-color="white"/>
<stop offset="1" stop-color="white" stop-opacity="0"/>
</linearGradient>
<linearGradient id="paint1_linear" x1="9.79803" y1="15.5584" x2="9.79803" y2="23.5744" gradientUnits="userSpaceOnUse">
<stop stop-color="white"/>
<stop offset="1" stop-color="white" stop-opacity="0"/>
</linearGradient>
<linearGradient id="paint2_linear" x1="9.79803" y1="21.3585" x2="9.79803" y2="29.3744" gradientUnits="userSpaceOnUse">
<stop stop-color="white"/>
<stop offset="1" stop-color="white" stop-opacity="0"/>
</linearGradient>
<linearGradient id="paint3_linear" x1="8.36504" y1="27.1585" x2="8.36504" y2="35.1745" gradientUnits="userSpaceOnUse">
<stop stop-color="white"/>
<stop offset="1" stop-color="white" stop-opacity="0"/>
</linearGradient>
<linearGradient id="paint4_linear" x1="7.21864" y1="9.75863" x2="7.21864" y2="17.7746" gradientUnits="userSpaceOnUse">
<stop stop-color="white"/>
<stop offset="1" stop-color="white" stop-opacity="0"/>
</linearGradient>
</defs>
</svg>
